<?xml version="1.0" encoding="utf-8"?>
<!-- Generator: Adobe Illustrator 28.0.0, SVG Export Plug-In . SVG Version: 6.00 Build 0)  -->
<svg version="1.1" id="Слой_1" xmlns="http://www.w3.org/2000/svg" xmlns:xlink="http://www.w3.org/1999/xlink" x="0px" y="0px"
	 viewBox="0 0 1000 282.8980103" style="enable-background:new 0 0 1000 282.8980103;" xml:space="preserve">
<style type="text/css">
	.st0{fill-rule:evenodd;clip-rule:evenodd;fill:#A71F33;}
	.st1{fill-rule:evenodd;clip-rule:evenodd;fill:#1D1D1B;}
</style>
<path class="st0" d="M158.0098724,168.7053528l-50.6847305-0.0245819c0,0-1.5361786-0.1559296-2.3083191-1.5031433
	c-0.7639847-1.3146362-0.5668106-2.0130768-0.5668106-2.0130768v-47.2425842c0,0-0.0657501-1.6756287,0.8460846-2.6859207
	c0.8625717-0.9611588,2.4479523-1.0107956,2.4479523-1.0107956h66.785614c0,0,1.0678864-0.1559296,2.3001099,0.5259552
	c1.0596771,0.5750885,1.651123,2.7846909,1.651123,2.7846909v48.4830246c0,0-0.5914459,1.347229-1.1746826,1.8240356
	c-0.5256958,0.4517517-1.6264954,0.8292999-1.6264954,0.8292999L158.0098724,168.7053528z M157.6238098,83.8392563V31.5772877
	c53.6748657,7.8120937,94.8962555,54.0198288,94.8962555,109.8631897c0,55.8273315-41.131012,102.1007385-94.7894592,109.9378967
	l-0.098587-52.6234589h20.8324585c17.38237,0,30.1562347-13.0370331,30.1562347-30.4110718v-54.4550247
	c0-17.3825455-13.8500366-30.0741348-31.2405396-30.0741348L157.6238098,83.8392563z M73.7023544,113.8888168
	c0-17.3825455,10.5641098-30.1563568,27.9382019-30.1563568l23.1408386-0.0742035V31.7086506
	c-53.4038086,8.0422306-94.354126,54.0855103-94.354126,109.7318268c0,55.6548462,40.9503212,101.7888794,94.354126,109.8391266
	l-0.0821609-52.1551666h-19.3538742c-17.3905106,0-31.6430054-13.4065552-31.6430054-30.7805939V113.8888168z M0,141.4404755
	C0,63.3270531,63.3435974,0,141.4654541,0c78.1383057,0,141.4736938,63.3270531,141.4736938,141.4404755
	c0,78.1304779-63.3353882,141.4575348-141.4736938,141.4575348C63.3435974,282.8980103,0,219.5709534,0,141.4404755"/>
<path class="st1" d="M945.1635742,270.7138367c0,0,0.1890259-1.0022888,0.6162109-1.4375
	c0.4353027-0.4271545,2.9243164-1.0679321,3.9430542-2.3329468c0.9692993-1.2734985,21.6867676-48.1626282,21.6867676-48.1626282
	l1.2733154-0.3203735l19.0334473,43.702301c1.2650146,2.874939,2.1358032,4.8052673,2.8505249,5.5282898
	c0.7721558,0.6653137,2.6861572,1.4785767,3.9594727,1.5853577c0.7557983,0.0657043,0.3203735,1.1747742,0.3203735,1.1747742
	l-20.9064331-0.0245667c0,0-1.3964844-1.0599365,0-1.6019287c0.8460693-0.3204041,4.1977539-1.3552551,4.7481079-3.4831543
	c0.2381592-0.9611511-0.2299805-3.178772-1.1747437-5.7338257c-0.673584-1.7989807-2.5548096-5.750412-3.6144409-6.4814301
	c-0.9693604-0.6733551-4.8795166-0.3203888-8.5186768-0.4271851c-3.2858887-0.0982666-7.6478882-0.2135773-9.0361328,0.5339813
	c-1.7168579,0.9120178-3.6227417,8.1244507-4.0333862,9.2415466c-0.3779297,1.0845032,0,3.6064758,0.9528809,4.3540344
	c1.6018066,1.2649841,4.805542,2.2341919,5.9555664,2.5625916c0.4107666,0.106781,0.3122559,1.2655029,0.3122559,1.2655029
	L945.1635742,270.7138367z M976.8231201,249.2981262c0.5339355-0.7064514-1.4457397-4.6082458-3.2858276-8.7155914
	c-1.3800659-3.0805206-3.7295532-9.0690765-4.4688721-8.8228912c-0.5421143,0.1644592-2.4233398,4.8960419-3.9348755,8.2889099
	c-1.6018066,3.6801758-3.5322876,8.2718658-2.7601318,9.0359802c0.4518433,0.4517517,4.0252686,0.7475739,7.0071411,0.6407776
	C972.7978516,249.6019592,976.3383789,249.9389038,976.8231201,249.2981262 M394.8932495,259.5664978
	c1.1254272-5.4380188-0.1068115-9.0279388-3.2858276-11.6978302c-1.5115662-1.2484436-5.5449524-3.1787872-8.8308716-3.1787872
	c-4.5263062,0-7.4918213-0.4271698-7.4918213,4.6167755l0.0493164,12.2889557c0,6.9085999,8.6089783,6.1690674,8.6089783,6.1690674
	C390.9584351,267.764679,394.0471497,263.7149658,394.8932495,259.5664978 M530.8713379,268.7097778
	c0.0657349,0.1148376,2.661499-0.6327515,3.8444824-2.4397278c0.6078491-0.9611816,1.3800659-2.2757874,1.3800659-5.5207825
	v-32.5464478c0-2.0045471-0.6325684-3.9514313-1.4950562-4.7727051c-0.8297729-0.8297882-2.1605225-1.6921692-5.1095581-1.9142914
	c0,0-2.2262573-1.3878326,0-2.012558c0.1067505,0.0987701,19.6741943-0.0411072,19.6741943-0.0411072
	s1.7990112,0.5750885,0.213562,1.4134064c-1.4046631,0.7555847-2.6615601,0.2216034-3.8115845,1.5031433
	c-0.7886353,0.8869629-1.2650757,2.6042023-1.2896729,5.3803711v16.0679169c0,0.6407776,0.6160278,1.5939178,0.8296509,1.6104584
	c1.0761108,0.1148224,1.7168579-1.1993103,2.2508545-1.4871063c2.1357422-1.8155212,5.4134521-5.3643341,8.3953857-8.1981659
	c5.3477783-5.0850525,8.050415-7.7138214,8.9293823-8.913147c1.1665039-1.6019135,1.4047241-3.8280792,0.7393188-4.5756378
	c-0.7393188-0.8543701-2.3330078-0.8543701-3.704834-1.289566c0,0-1.2814941-0.8458405,0.213562-1.3717957
	c0,0.1067963,17.5220337,0,17.5220337,0s0.6489868,1.5939026-0.3121948,2.0291138
	c-2.4397583,0.2135925-3.3269653,0.7229919-4.7809448,1.4866028c-1.3883057,0.6984406-4.2880859,2.7275391-6.8100586,5.1998749
	c0,0-12.8067017,11.0410156-12.3220215,12.3220673c0.7393188,2.0290985,8.1408081,10.6875458,13.1763916,17.6618195
	c2.144043,2.9817505,4.288147,6.7030334,5.5285034,7.6481323c1.1993408,0.8704224,3.0805054,2.6533508,4.6741333,2.6533508
	c1.8565674,0,0.9693604,1.6921692,0.9693604,1.6921692s-9.980896-0.3534851-11.6977539-0.1890259
	c-1.1746826,0.0902405-2.5875854-2.0291138-2.5547485-2.0291138c-3.9348755-5.1011047-15.0903931-20.7338104-15.9447632-21.6949615
	c-0.4271851-0.3203888-5.0109863,3.0805206-5.1012573,5.9639893c0.090271-0.1067963,0,9.46315,0,9.46315
	c0,2.8423767,0.6571045,4.2718201,1.4621582,5.1011047c1.4047241,1.3722839,4.9123535,1.799469,4.9123535,1.692688
	c1.6018677,0.4351807,0.5257568,1.5031433,0.5257568,1.5031433h-21.1445923
	C530.0334473,270.1061401,529.2940674,269.0381775,530.8713379,268.7097778 M465.3262024,268.7423706
	c1.4375305-0.5585327,4.0498047-2.2015686,5.052002-3.3186646c0.9693298-1.1416626,1.7086792-2.1113281,1.7086792-6.1610413
	c0,0-0.2218018-24.6772156-0.2218018-28.2997284c0-2.9571686-1.0514832-6.8920441-2.4315491-7.9599915
	c-1.4047546-1.0759735-3.0476685-1.7252808-4.7891541-1.8070068c0,0-1.3800659-1.4871063,0.106781-1.8074951
	c0.427124-0.0987701,13.2831726,0,13.2831726,0l31.4787598,34.7565765c0,0,1.2157288,1.5196991,1.9058228,1.1747437
	c0.1314392-0.0742035,0.2874756-1.5282135,0.2956848-1.7006989c0.12323-2.6533356,0.0328369-23.0998535,0.0328369-23.0998535
	c0-2.2015839,0.4190063-4.649353-1.0760803-6.3495483c-1.9058533-2.1689911-5.6763916-2.5630798-6.7935486-2.9737244
	c-0.8625488-0.3203735-0.8625488-1.2735138,0.090332-1.5939026c0,0.2872925,16.807312,0,16.807312,0
	c1.1665039,0.1067963,0.3121338,1.2735291,0.3121338,1.2735291c-1.9057617,0.5334625-3.7705688,0.9606476-4.6659546,2.1273804
	c-1.0596924,1.3717804-1.6101074,3.4585571-1.6101074,7.5162659v40.5069733h-1.4210815
	c0,0-34.5510864-37.5578156-36.6293945-39.6195221c-0.9611511-0.9611511-1.2732544,0.3118744-1.2732544,1.5934143
	c0,1.2735138-0.1068115,25.8188629-0.1068115,25.8188629c0,4.2307129,0.8543091,6.8183594,3.5405273,8.2232361
	c1.0514832,0.5419922,3.7459412,1.223877,4.9616699,1.4620361c0.5339661,0.0987854,0.796814,1.6264954,0.796814,1.6264954
	h-19.3537903C465.3262024,270.1307068,464.8168335,268.9233704,465.3262024,268.7423706 M407.9957275,270.262085
	c0,0,0.1889343-1.0103149,0.6243286-1.4374695c0.4189148-0.4352112,2.9161987-1.0679626,3.9266052-2.3409729
	c0.9610901-1.2735291,21.6868286-48.163147,21.6868286-48.163147l1.2814941-0.303833l19.0334778,43.6937866
	c1.2650452,2.8508606,2.1112061,4.79776,2.8669128,5.5122375c0.7475891,0.6818848,2.6616211,1.4870911,3.9266663,1.6019287
	c0.7639465,0.0491333,0.3286133,1.1581726,0.3286133,1.1581726l-21.1611328,0.5339966c0,0-0.7392883-1.1662292,0.6407776-1.6921692
	c0.8460999-0.3369446,3.8280334-1.8155212,4.3455811-3.9594727c0.2464294-0.9446106-0.1971741-3.1546936-1.1582642-5.7257996
	c-0.6736145-1.7909546-2.5548096-5.7338715-3.6227112-6.4814301c-0.9446716-0.6733551-4.8877563-0.3118591-8.5022583-0.4186554
	c-3.3023071-0.0987701-7.6478882-0.2221222-9.0279541,0.5339661c-1.7414856,0.9360962-3.6473389,8.1239624-4.0498047,9.2415466
	c-0.3779297,1.0840149,0,3.6225281,0.9528809,4.3620605c1.6100769,1.2484436,4.7973938,2.2261658,5.9638672,2.5299988
	c0.4107361,0.1313477,0.3039551,1.2895508,0.3039551,1.2895508L407.9957275,270.262085z M439.6716614,248.8383484
	c0.5092773-0.6984253-1.470459-4.6002045-3.3105469-8.716095c-1.3800659-3.0970612-3.7048645-9.0605316-4.4687805-8.8223724
	c-0.5339661,0.1559296-2.4398193,4.8794861-3.9266663,8.2884064c-1.6100769,3.6721497-3.5487366,8.2723694-2.7601318,9.0364838
	c0.4518127,0.4597626,4.0333862,0.7310181,7.0071106,0.6242218
	C435.6299744,249.1421967,439.1787109,249.479126,439.6716614,248.8383484 M392.3467102,232.5814209
	c0.0410461-3.4094238-1.9468994-6.5967407-4.148407-8.4117584c-1.2733459-1.0519104-3.721283-2.3334503-6.489624-2.3334503
	c-3.8280945,0-6.3417969,0.5179291-6.3417969,4.1404419l-0.0328369,13.4968109
	c-0.3121643,3.1953278,7.3193054,2.3906097,7.3193054,2.3906097
	C389.0526123,241.8640747,392.2398987,240.9766235,392.3467102,232.5814209 M360.1368713,268.6847229
	c2.5465393-0.7144775,4.4277344-1.347229,5.1998596-2.3078918c0.8543701-1.0679626,1.1582642-1.7418213,1.1829529-4.600708
	v-34.0661774c-0.0082092-2.0536652-0.5339661-3.2203979-1.7168579-4.5014343
	c-2.2919006-2.4893799-4.9781494-0.8543701-5.4135437-1.7994843c-0.3285828-0.7224884-0.2218018-1.9960175-0.2218018-1.9960175
	h21.4486084c6.1364136,0,10.1944885,0.2627258,13.8582458,2.1028137c2.7601318,1.3722992,6.0542297,4.6824493,6.0542297,9.6195984
	c0,6.8594513-5.5285339,9.3072205-7.7546692,10.901123c4.2469788,1.1582031,11.2622986,3.6059723,11.2622986,11.5825195
	c0,8.2803802-4.5673523,13.4968109-8.9293518,14.8851471c-2.9819336,0.9446106-6.7114258,1.5116882-10.9830627,1.5527954h-23.986908
	V268.6847229z M668.3443604,269.1284485c0,0.1478882,2.6533813-0.8458557,3.8198242-1.7909546
	c0.8462524-0.6813965,1.503418-2.1028137,1.503418-5.4380493l0.0985107-32.1934814
	c0-2.710495-0.3203735-3.9348755-1.2815552-5.4214783c-0.9528809-1.4785919-3.2940674-1.8155212-6.0541992-2.2427063
	c0,0-2.020874-1.4951324-0.5913696-2.1028137c-0.1479492-0.0165405,14.9260864,0.0982819,22.1713867,0.1890259
	c7.4425659,0.1148224,14.8768921-0.5996552,15.6408691-0.090744c0.9447021,0.6407623,0.4436035,7.7714691,0.6160889,9.1347504
	c0.1231689,0.7395325-0.460022,2.242691-1.1417847,2.3329468c-0.8626709,0.1067963-1.0679932-1.4129028-1.0679932-2.3329468
	c0-1.905777-1.6347656-4.1399536-2.0289917-4.6824493c-1.0186768-1.3717957-2.9819336-1.6099548-3.9348755-1.6099548h-11.4266968
	c-1.0185547,0-1.3143921-0.0411072-1.6428833,0.3289185c-0.2792969,0.3364258-0.7229004,1.1747437-0.7639771,2.2421875v14.1375885
	c0,0.8543549,0.0410767,2.0456543,0.5422363,2.2261505c1.1828613,0.4271851,8.8307495,0.3203888,8.8307495,0.3203888
	c1.2814331,0,2.7518921-1.2815399,3.1954956-2.0125732c0.6407471-1.1581879,1.7579956-2.5465393,2.3329468-4.2467346
	c0.3203735-0.9696808,2.020813-1.7172394,2.020813,0.4271851c0,1.3306732,0.2054443,16.5688019,0.2054443,16.5688019
	c-0.8460693,1.1747437-1.5855103-0.3118591-1.5855103-0.3118591c-0.5749512-2.9576874-1.0925293-4.0256348-2.0454102-5.0028381
	c-0.887207-0.9696808-2.2180176-2.1193542-4.1237793-2.1193542c0,0-6.4403076-0.0907593-6.5964355-0.1153259
	c-2.447937-0.2135773-2.5546875,2.4482727-2.6533813,3.41745c0,0.0987701-0.1231689,13.5955963-0.1231689,13.5955963
	c0.1231689,1.3797913,0.427124,3.2279053,1.2896729,4.0416565c0.8707886,0.7390442,3.0394897,2.2918396,5.9556885,2.5299988
	c1.3718262,0.1313477,0.4271851,1.6921692,0.4271851,1.6921692h-22.1222534
	C667.8104248,270.598999,666.7590332,269.8840332,668.3443604,269.1284485 M615.3924561,225.6562805
	c4.7069702-4.4934235,11.5251465-6.4483337,18.4009399-6.4734039c6.8839111,0,12.5765991,1.0679474,17.3247681,5.6270599
	c5.0932007,4.8960266,7.7218018,10.9422455,7.7629395,19.1404114c0,8.2889099-2.6533203,15.0495911-7.960144,19.9701843
	c-4.7315674,4.3866272-11.3690186,6.9822998-18.1051636,6.9988708c-7.163147,0-14.0471802-1.9223328-18.7952271-6.7772522
	c-4.7891235-4.9205933-6.5471191-11.5413971-6.5963745-19.3539886
	C607.4241943,236.6556854,610.2418213,230.6260071,615.3924561,225.6562805 M621.9888916,262.6555481
	c4.2058716,4.7887268,7.1384888,5.8486633,12.9709473,5.8486633c4.0333862,0,8.1160889-2.3986206,11.2623901-6.1690369
	c2.6533203-3.1958313,3.9347534-8.8229065,3.9347534-17.1198425c0-8.3460693-2.2836914-13.8989105-5.4216309-17.7355194
	c-3.6144409-4.4768677-7.5164795-5.511734-12.0099487-5.5368042c-4.5426636,0-9.1428833,1.1747437-12.1248779,4.567627
	c-3.2529907,3.7132568-4.7398682,9.6356354-4.7808838,17.7520752
	C615.8196411,252.2883911,619.6312256,259.9936829,621.9888916,262.6555481 M888.7368774,268.7097778
	c0,0.1148376,3.4090576-1.0599365,4.6741333-2.9822388c0.8049927-1.1827698,1.31427-2.3244324,1.31427-6.3746338
	l-0.4517212-31.7828369c-0.2218628-2.4312286-2.0537109-4.1564941-2.8752441-4.5671234
	c-1.0596313-0.5339813-2.7929688-0.4191589-3.7294312-1.1667328c0,0-2.1193237-1.593399-0.3121948-1.9137878
	c-0.1396484,0.057663,12.8560181-0.4352112,13.0367432,0.057663c1.4293213,0.8954773,21.736084,23.4282532,30.1234131,33.105011
	c2.7683105,3.2941132,3.8362427,2.7521057,3.7211914-0.4271851c0.1150513,0,0.1150513-23.8143311,0.1150513-23.8143311
	c0-3.3928833-1.7087402-4.5590973-2.447998-5.0930786c-1.5361328-1.1170807-2.9901733-1.9142914-5.5284424-2.3575134
	c0,0-2.1276245-0.7149811,0-1.4129028c0.1066895,0.0571594,16.6922607,0,16.6922607,0
	c1.1665039-0.057663,1.1665039,0.8954773,0,1.2158508c-1.4868774,0-3.2695312,1.1993256-4.2469482,2.3244324
	c-0.953064,1.1336365-1.4376221,3.66362-1.4376221,7.7052917l-0.0575562,38.8804779
	c-0.1067505,1.8070068-1.8153687,0.8458557-1.8153687,0.8458557s-31.6842041-34.5510254-35.4383545-38.7812195
	c-0.0328369-0.0496368-0.5996704-1.0844879-1.5197144-0.4271698c-0.5667725,0.4186554-0.6243286,0.607666-0.5667725,1.5608063
	c0,0.1148224,0.090332,26.0484924,0.090332,26.0484924c0,4.1896057,1.4457397,6.4979858,2.6780396,7.76297
	c0.7885742,0.8298035,2.0865479,1.5277405,4.8877563,1.7909546c1.7004395-0.0822144,1.3882446,1.7087097,1.3882446,1.7087097
	l-19.4606934,0.0080261C887.5702515,270.6235657,887.2416992,269.1284485,888.7368774,268.7097778 M859.1802979,269.2437744
	c0.7392578-0.2055969,2.357605-1.0930481,3.3104858-1.7994995c0.887207-0.7224731,1.3964844-2.1354065,1.4293213-5.1176453
	l0.1479492-32.850296c-0.1068115-2.1113434-0.1068115-4.6663971-1.1583252-5.7258301
	c-1.5443115-1.5442657-3.2941284-2.20961-6.4320679-2.3575134c0,0-1.3390503-0.7149811,0-1.4129028
	c0.0492554,0.1479034,21.1117554,0,21.1117554,0c1.684021,0.2627258-0.2217407,1.4129028-0.2217407,1.4129028
	c-1.7087402,0.016037-3.0559692,0.9115143-3.7295532,1.724762c-0.9692993,1.1667328-0.9200439,3.5488129-1.0596924,5.3066711
	v33.9022064c0,2.9411316,0.9858398,4.6824646,1.9140625,5.4380493c0.8954468,0.6658325,1.9633179,1.2243652,5.1013184,1.4870911
	c2.0372925,0.3123779,0,1.3717957,0,1.3717957l-20.4135132-0.0080261
	C857.5701904,270.1061401,859.1802979,269.2437744,859.1802979,269.2437744 M792.8301392,269.0381775
	c-0.1068115,0.016571,3.1790161-2.1524353,3.9429932-2.98172c0.7475586-0.7886963,1.3883667-2.0947876,1.3883667-5.4139709
	l0.213562-31.684082c0-2.7350616-0.550354-4.2798309-1.1829834-5.3146973
	c-0.7229004-1.289566-2.4725952-1.4785919-5.3148193-1.7006989c0,0-4.0335693-0.9691772-0.3040161-1.9057617
	c-0.0328369,0.1479034,19.8713379,0,19.8713379,0c2.1276245,0.090744,0.3286743,1.3557434,0.3286743,1.3557434
	c-1.593689,0.016037-2.8752441,0.5500183-3.6801758,1.5196991c-0.7147217,0.9280701-1.4294434,2.5380096-1.2651367,5.3558044
	v11.2049713c0,0-0.1643066,2.6613617,2.1687622,2.5630798c3.4172974-0.1724701,18.6884155,0.2873077,21.0706177,0.0982819
	c2.7519531-0.2135925,3.2859497-1.9223175,3.2859497-3.1953278c0.1068115-3.1873169,0-10.3506165,0-10.3506165
	c0-2.7270355-0.7393188-4.8138123-1.5608521-5.6761932c-0.8214722-0.8132477-2.6533203-1.2815399-5.4956665-1.5196991
	c-1.9961548-0.2958221-0.5996704-1.4129028-0.5996704-1.4129028l21.1447144,0.0080109c0,0,1.0679321,1.20784-0.6160889,1.420929
	c-1.7251587-0.0982666-2.4151611,0.6573181-3.2695312,1.5036621c-0.8296509,0.8378143-1.2321777,2.5876465-1.2321777,5.3558044
	l0.0247192,33.7462769c0,2.768158,0.550415,3.6470947,1.3882446,4.4688721
	c0.8132324,0.7470398,1.7168579,2.0451355,4.5592041,2.3409729c1.5032959,0.213562,2.1193237,1.6921692,0.4353027,1.7989502
	c0.1068115,0.2055664-19.3538818,0.4271851-19.3538818,0.4271851s-2.5546875-1.1667175,0.3204346-2.1439209
	c0,0.1313477,2.234375-0.7229919,3.0887451-2.103302c0.550415-0.9280701,0.9610596-3.4004211,0.9610596-5.0930786
	c0,0,0.0903931-11.8041382,0.0903931-13.6281891c0-1.2649994-0.4189453-2.9737091-2.1276855-2.6448059
	c0,0-20.7173462-0.0656891-22.4342651-0.2221222c-1.1664429-0.106781-1.9140015,0.5259552-1.9140015,2.7686615
	c0.0492554-0.0496368,0,13.4060516,0,13.4060516c0,2.7521057,1.4949951,5.0113525,2.3493652,5.8326416
	c0.8215332,0.7886658,2.3657837,1.560791,5.2081299,1.8154907c2.447998,0.3123779,0.6325073,1.5853882,0.6325073,1.5853882
	l-22.6315308-0.0080261C792.3207397,270.6155396,791.0310059,269.4573364,792.8301392,269.0381775 M771.6772461,221.4090271
	c2.7026367,1.3968658,4.8959351,2.5470428,6.0788574,2.4562988c0.7147217-0.0737,1.3225098-1.5608215,1.5690918-2.4562988
	c1.1828613-1.593399,1.6017456,1.2815552,1.6017456,1.1747589l0.9693604,14.3511658c0,0-0.9693604,1.3717957-1.9140625,0
	c-1.0185547-3.4009094-3.6883545-7.1632996-5.5366821-9.1512909c-2.7683105-2.9737244-7.7711182-5.9634857-13.0696411-6.0622711
	c-6.0541992-0.0902405-10.2683716,2.3986359-13.3981323,6.2843781c-2.6697998,3.2941132-4.2553101,8.8143616-4.2553101,14.5647583
	c0,6.7852631,2.8834839,14.6630249,6.9250488,18.4991455c3.9020386,3.7132568,8.0997314,5.5944519,13.6199951,5.6190186
	c3.9430542,0,6.1693115-1.0679321,9.5372925-2.9737244c1.9058838-1.0433655,4.4935303-3.8360901,6.8181763-6.0542297
	c1.3719482-1.1747437,2.1112061,0.4271851,2.1112061,0.4271851c0.2053223,1.1747437-4.1812744,5.7503967-7.7463989,8.600769
	c-2.6698608,2.1359253-9.5783691,4.5836792-13.0778809,4.5836792c-8.2392578,0-12.9874268-0.4432373-20.1917114-6.916626
	c-4.0991821-3.6801758-6.399292-11.2786713-6.4485474-18.5653076c0-7.4260406,2.3740234-13.6773071,7.0893555-18.7458191
	c4.9370117-5.3066711,11.3444824-7.9600067,19.3455811-7.9600067
	C764.4728394,219.08461,769.0238037,220.0372467,771.6772461,221.4090271"/>
<path class="st1" d="M562.8569336,74.936142c0.3285522-0.64077,0.4189453,0.5419998,1.9879761,2.2587433
	c1.56073,1.708725,0.6078491,2.2266541,1.5443115,3.6144943c0.9447021,1.4048843,0.9529419,0.6658401,0.7146606,2.2426987
	c-0.2382202,1.5853806-0.5338745,1.2735214-1.9386597,2.4151764c-1.3800659,1.1582031-0.2217407,0.64077-1.5771484-0.7475662
	c-1.3718872-1.4129105-0.1725464-3.4009018-1.5361938-4.5916901c-1.3718872-1.1912994-1.4786377-1.1912994-1.1418457-3.0805206
	C561.2632446,75.1331863,562.5283203,75.5769119,562.8569336,74.936142 M557.4844971,80.1686096
	c0.6407471-0.418663,1.7744141,1.5282211,2.6204834,3.5573273c0.8050537,2.0205917,0.8214722,1.5853882,1.5361938,3.8361053
	c0.7146606,2.2261581,0.5092773,1.1747513-1.3143921,3.2695389c-1.8318481,2.1028137-4.2716064,1.8400879-6.7278442,4.0416718
	c-2.4726562,2.20961-3.5322876,1.5608139-5.7831421,3.1296539c-2.2507935,1.5688324-1.9140015,1.0188141-3.8198242,0.2627258
	c-1.9058228-0.7636108-1.7908325-1.289566-0.5010986-2.8749466c1.2979126-1.5608139,1.0679321-0.7229996,2.0372314-1.5608139
	c0.9693604-0.846344-1.1582642-0.9691772-0.0820923-1.8069992c1.0760498-0.8297882,0.9610596,0.3364334,2.6697388-1.5527878
	c1.7250977-1.9057693,1.2075806-2.218132,1.8565063-3.3763351c0.6407471-1.1582031,1.4047241-2.5299911,3.2202148-3.3678131
	C555.0118408,82.9041672,556.8519897,80.595787,557.4844971,80.1686096 M571.4412842,34.9305573
	c0.6571655-0.3123627,2.0290527-0.287796,3.5158691-0.0576591c0.8543701,0.1313629-0.6571045-0.2301369,3.0805664-0.3860664
	c1.9140015-0.0902519,2.9490356,0.8789291,4.6412964,1.8646545c3.9677124,2.2838135,6.7442627,3.0890388,7.5904541,4.3374901
	c0.7310791,1.0679512,1.2814331,3.1216278,1.0103149,4.6824417c-0.2382202,1.2730179-0.3614502,3.7047424-1.987915,5.0519638
	c-1.3964844,1.1912956-2.1768799,2.2752914-2.8833618,2.9491539c-0.6489868,0.6322479-0.4025269,2.538517-1.5443726,2.9571762
	c-1.3718872,0.5174294-2.4151001-0.4517517-4.1073608-0.4682961c-1.8236694-0.0165443-3.2119751,1.0188179-3.7294922,0.4763145
	c-0.3778687-0.3860664-0.7885742-1.042881-1.4786377-1.4946289c-0.6160889-0.4357071-1.5525513-0.1233406-1.6675415-0.887455
	c-0.2053833-1.1662216-1.684082-4.2798309-2.8012695-5.4300079c-0.427124-0.4352036,0.6407471-2.6698799,0.0411377-3.4089241
	c-0.6325684-0.7395439-0.5175781-1.9223137-0.6161499-2.6613579c-0.0985718-0.7641106-0.0820923-1.4134064-0.0820923-2.218132
	c0.0164185-0.7395439-0.9694214-1.9223137-0.492981-2.8834686
	C570.2666016,36.7210083,570.7595215,35.2755089,571.4412842,34.9305573 M554.2643433,48.2960014
	c-0.3943481-2.0130615,1.9222412-1.4625397,4.0580444-2.5961761c2.144043-1.141655,1.0761719-0.8378143,1.6922607,0.8628845
	c0.6160889,1.7167473-0.6243286,0.1148186-1.1911621,2.4231987c-0.5667725,2.3329506-0.5667725,1.9137917-2.0536499,2.9491539
	c-1.4950562,1.042881-1.2732544-0.1067963-2.0043945-1.2900658
	C554.0343628,49.4702492,554.6668091,50.3165894,554.2643433,48.2960014 M528.7741089,35.4805794
	c-0.427124-1.00177,2.1769409-4.4437847,9.0772705-13.0445595c6.1199341-7.6646881,18.8363037-12.7166529,24.0608521-14.5567398
	c1.1090088-0.4186573,4.8138428-1.4866095,6.062439-1.7498374c0.9693604-0.1885209,4.8220215-0.3695211,5.7420654-0.6733613
	c1.807251-0.6162033,4.8713379-0.3860669,5.4217529-0.6818848c1.3225708-0.6407714,2.7354736-0.9777026,4.2716064-1.3141327
	c1.7744141-0.3945906,4.0170288,0.5750899,5.6188965,0.2792721c3.121582-0.5916355,5.5613403,1.1907916,7.2946777,2.0947905
	c6.0213623,3.1622415,12.5603027,14.2769642,15.0328979,20.5778828c2.4644165,6.2758484,7.5575562,23.9622383,8.4446411,38.4116821
	c0.583374,9.2746353,0.2382812,33.532692-0.1313477,37.2539749c-0.6408081,6.6208038-0.9200439,22.1793137-1.3719482,25.1369858
	c-0.550415,3.5894241-0.9609985,9.7504501-2.2589722,11.9685898c-2.4069214,4.0908051-12.182373,11.3774414-14.2854004,13.2912292
	c-1.7168579,1.5773621-9.1182861,8.0176697-9.9644165,7.9439697c-1.0843506-0.057663-2.3165283-2.2507172-4.6248779-4.5019531
	c-4.1237793-4.0496826-14.8768311-7.8201141-19.4031372-10.325531c-4.4523926-2.4562988-19.0499268-3.8120422-27.9628906-4.3705902
	c-6.366394-0.4106293-16.1172485-1.2649994-16.4376221-1.9960175c-0.336792-0.8543549-1.0514526-0.5505219-2.0126343-0.5831146
	c-0.8706665,0-0.9610596,1.0759735-1.1828613,1.486618c-0.3286133,0.6407623,0.4189453,0.3369293,0.0903931,2.1193542
	c-0.3450317,1.8155212,0.5174561,0.649292,0.7064209,2.1278839c0.1972046,1.5111694,0.8378906,0.8709106,0.2957764,2.2341766
	c-0.5421753,1.3717957,2.2014771,2.374054,2.7189941,3.8526459c0.6079102,1.7829285,0.583313,4.0502014-1.3307495,4.1319275
	c-2.0618896,0.0822296-3.8527222,0.8954773-6.0460205,0.1318665c-1.5936279-0.5505219-7.056427-5.4876709-7.3356934-8.5762177
	c-0.230072-2.6372833-0.6079407-8.716095-0.8215332-10.6218567c-0.3860779-3.3923798-1.651123-12.3220596-2.0289917-16.7989349
	c-0.3614807-4.4523087-0.8050842-3.5076981,0.0739136-5.298645c0.8625488-1.790451-1.3636475-2.0782471-0.583252-4.4688568
	c0.5421753-1.6921768-0.1560669-4.9697342,0.8296814-7.0971146c0.4353638-0.9611588-0.7146606-0.9451141-0.6160889-1.9223175
	c0.1314392-1.2735214,0.2382202-2.1193619,0.5750122-3.3928757c0.2546692-0.9777069,0.1396484-2.1193619,0.0492859-3.918335
	c-0.090332-1.7989731-0.0821228-2.5465393,0.6736145-3.8200607c0.4682312-0.7801514-0.4024963-1.1742401-0.2710876-2.7601242
	c0.0657654-0.9115219,1.1746826-9.2250061,1.6264954-12.3957672c0.4682312-3.1707687,1.1664734-11.6156082,1.7497864-12.7161522
	c1.6265259-3.047924,2.5629883-9.9485016,3.2283325-12.3797226c0.7147217-2.571106,2.9655151-4.8880081,3.4830322-6.8674812
	c0.2300415-0.8297958,1.6018677-1.5608139,2.1358643-1.2404289c0.7310791,0.4517479,1.0267944,2.6779022,1.0267944,3.5157166
	c-0.0164185,1.2404289-0.8378296,6.6127815-1.3718262,7.7303696c-0.6572266,1.3878365-1.3636475,6.3495522-1.4622192,7.0971184
	c-0.213623,1.330677-0.2546387,2.858902-0.3778687,3.8200607c-0.1149902,0.9365883-0.7639771,2.20961-1.0925903,3.2695389
	c-0.2710571,0.8704071,0.213623,2.6287613-0.0492554,3.5076981c-0.336792,1.1662216-0.2300415,1.9057617-0.7722168,2.8583984
	c-0.5092773,0.9120178,0.3039551,1.8074951-0.0245972,2.5385132c-0.4107666,0.9200439,0.3860474,1.8155212-0.2546387,2.8669281
	c-0.673645,1.0925217,0.4436035,1.3392029,0.0738525,2.7601318c-0.4436035,1.7001953-0.3696289,3.0724945-0.796814,3.9183273
	c-0.427124,0.8378143,0.796814,1.9468842,0.3861084,3.5076981c-0.5585938,2.1113358-0.1724854,14.1455994-0.5175171,16.5527573
	c-0.3532104,2.439743-0.2382202,10.0873795,0.0657349,11.4757233c0.213562,0.9365845,0.2957153,2.8508759,1.133606,2.7521057
	c1.0596924-0.1148148,1.2404785-3.5488129,2.2755127-3.3517685c0.6242676,0.1067963,0.2299805,2.0622025,0.3778687,3.3928833
	c0.2874756,2.439743,0.0985718,0.3529739,0.6818237,4.6824417c0.3942261,2.8583984-0.0986328,7.6310883,0.3203735,9.1347504
	c0.4107056,1.4866028,0.1724854,2.8749542,1.7661133,2.8749542c1.3800659,0.0085144,0.8707886-1.0514069,1.9468994-2.4151764
	c1.0843506-1.3632812,1.1418457-1.5768585,2.0290527-0.9280701c0.7228394,0.5419922,5.939209,0.500885,7.6396484,0.2050629
	c2.1932983-0.3860626,3.7294922-2.2176208,5.2327881-3.3432465c1.8154907-1.3472137,8.9047241-8.0587692,12.4534912-11.0896454
	c1.6018677-1.3717957,6.0296021-6.6213074,7.74646-8.2889175c2.8422852-2.7846985,7.2618408-7.3763885,7.9518433-8.1735916
	c0.5421753-0.6487961,0.7557373-1.4951324,0.1314697-2.6613541c-0.3696899-0.7229996-0.9447021-0.8623886-1.6758423-0.4357071
	c-1.8482666,1.0107956-4.1976929,4.0747604-6.0131836,5.2083969c-3.2037354,2.0291061-7.2207031,4.7315826-9.4140015,6.0622559
	c-2.4726562,1.4459991-5.9885864,3.0970612-8.2393799,4.3455124c-2.8916016,1.6184769-6.1281738,2.6618576-6.612793,2.8919983
	c-1.0761719,0.5254517-1.4622803,0.8378143-2.4398193,0.0737c-0.8460693-0.6322479-0.583252-0.2792664,0.2463989-2.9656982
	c0.550415-1.7904434-0.8624878-3.7538757,1.1419067-6.3580704c1.2897339-1.6676102,2.5054321-6.0131226,4.5673828-8.5350952
	c0.7229004-0.8954773,4.682373-5.857193,5.4874268-7.146759c0.6653442-1.0514069,1.9633179-1.6345139,2.1522217-1.9960175
	c0.6571655-1.2815399,1.4622192-2.8503799,1.8401489-3.0559464c1.3554077-0.7064514,2.7025757-2.6944427,2.9161987-2.9326019
	c0.4353638-0.5174332,0.5996094-0.8297958,0.3285522-1.6921768c-0.1067505-0.3289108-0.796814-1.5116806-1.5854492-0.5505219
	c-0.8624878,1.0513992-2.447937,1.3391953-3.0969238,1.7578583c-1.1992798,0.7806549-0.8789673,2.2261505-2.0536499,2.3083801
	c-1.7169189,0.1479034-1.5608521-2.6533356-1.3308105-3.6144943c0.2628784-1.1251068-0.6078491-1.3963623-0.0739136-2.5630875
	c1.2650757-2.6613541,0.887146-2.9486465,1.2157593-3.4826202c0.3285522-0.5259552,0.6079102-0.1233444,1.2815552-0.9285736
	c0.427063-0.5339737-0.4107666-1.2815399,0.1314087-1.9137878c1.0842896-1.2815399,1.4046631-2.7932205,2.480835-3.4751053
	c1.1746826-0.722496,3.2201538-3.4580612,3.4419556-4.2056274c0.2874756-0.9120178,0.3532104-1.8155174,0.673645-2.7521057
	c0.1231689-0.3123627-1.0925903-0.4848404-1.5772705-1.0679512c-0.5257568-0.6487923-0.0821533-1.0594292,0.1396484-2.2261543
	c0.1149902-0.64077-1.1500244-1.4048843-1.1418457-2.250721c0.0246582-0.9611588-0.0903931-1.3883362-1.2568359-1.289566
	c-1.1746826,0.0902519-3.7213135,2.7350616-5.7749634,3.1131058c-2.1275635,0.4026146-3.8034058-1.109066-2.7191162-3.2198982
	c1.3390503-2.6127243,4.5263672-6.4157372,5.1835327-7.1467552c0.9528809-1.0930214,0.7639771-2.1198616,0.6654053-3.1792908
	c-0.0903931-1.0925179-1.0761719-3.4996719-1.4047241-6.0707817c-0.1889038-1.4866066-1.8071899-6.9908218-2.1358032-7.6561623
	c-0.2053833-0.4432259-0.6900635-1.7498379,0.5585938-2.2427006c0.5421143-0.1970444,1.593689,0.9857254,2.3165283,2.0622005
	c1.1008301,1.609951,2.8012085,4.6002159,3.3187256,5.6596451c0.6489868,1.3226547,1.2733154,2.6944504,1.5526123,3.7378311
	c0.2053223,0.7395477,0.7064819,2.1193619,1.774353,2.2507248c1.0432739,0.1153183,1.7004395,0.0165443,2.3494263-0.6157036
	c1.0925293-1.0679512,6.7525024-3.2860832,9.1757812-4.1324234c1.1665039-0.4021111,1.8154907-0.6076813,3.0723267,0.1564331
	c0.7064819,0.4106331,1.560791,2.8669243,1.9879761,3.0885391c0.8625488,0.4517479,1.256897,0.3449516,1.0432739,0.9776993
	c-0.1478882,0.4106369-0.0164185,0.1970444-1.0843506,1.4700661c-1.0761108,1.2569733-0.12323,1.7006989-1.1993408,3.3848572
	c-1.0925903,1.683651-1.9633789,4.0005569-2.3986816,5.0519638c-0.4271851,1.0348587-1.4047852,1.4785881-2.1522827,2.218132
	c-0.8707886,0.8378143-0.5585938,1.9960175-0.9857788,2.2176285c-1.3308105,0.6327515-1.2979126,0.4357033-1.7004395,1.3472252
	c-0.4517822,0.9611549-0.673584,2.439743,0.3614502,4.3620567c0.5093384,0.9531364,1.4786377,1.1747475,1.6676025,1.9468842
	c0.3860474,1.4129028,1.3636475,1.3803101,1.8894043,2.1193542c0.887146,1.289566,0.7393188,1.20784,1.2486572,2.0371323
	c0.9282227,1.5036545,0.8378906,0.8789291,1.9961548,1.7252731c0.7310791,0.5419922,1.3554077,2.2507172,2.1850586,3.1136017
	c1.3800659,1.3878403,3.15448,2.4723358,4.4113159,3.9754944c1.010437,1.1993103,1.0350952,1.799469,0.9200439,2.8754425
	c-0.2053833,1.7909546,0.2053833,0.7390442-0.4517822,2.0045471c-0.4846802,0.9526291-0.0164185,2.2341766-0.0246582,2.8749466
	c-0.0164185,1.1662216-0.0328979,2.012558-0.7803955,3.0639648c-0.7722168,1.0599289-2.9244385,3.786972-3.3598633,4.8469009
	c-0.3613892,0.8704071-0.6571045,1.7989731-0.2382202,2.2176285c0.583252,0.5996628,1.0515747,0.8628845,1.807251,0.345459
	c1.3554688-0.9451141,5.388855-7.5824661,8.84729-11.99366c1.8318481-2.3575134,5.6352539-8.6338654,6.4978027-10.3340607
	c0.887146-1.7252731,3.5734253-4.9702377,4.1156006-5.6681671c0.3121948-0.4271851,1.2650757-0.4106369,1.4539795,0.3369293
	c0.2053223,0.6568146-0.0985718,1.3798141,0.0985718,1.7989731c0.2792969,0.5911331,1.0515137,0.2381592,1.1500244,1.1993179
	c0.0985718,0.9611511,0.1889648,1.3798141-0.1314087,1.8972397c-0.2382202,0.3945923,0.5997314,0.6247253,0.0903931,1.4951324
	c-0.4436035,0.7315216,0.090332,2.2261581-1.1090088,3.5819016c-1.68396,1.9468842-5.8324585,7.4586182-7.5493164,9.6767502
	c-2.3740845,3.0479279-9.2579956,11.2460861-10.3258667,12.1826782c-0.583252,0.5089035-1.3061523,1.6179733-0.9940186,2.3409729
	c0.5258179,1.150177,2.4890747,4.4768677,3.6391602,5.4545746c1.5032349,1.2404251,4.6495361,3.1216278,6.0131836,3.1461945
	c1.6593018,0.0165482,2.7189941-0.4682922,3.3104858-0.9365845c2.571167-1.9714508,4.6412964-6.2923965,5.512085-8.4037323
	c1.223999-2.9406281,3.1954956-8.9948654,3.3104858-9.9314499c0.1724854-1.4951401-0.5010376-3.0970612-0.3778076-3.6225204
	c0.1478271-0.6653366,1.0842896-0.509407,1.2732544,0.1233444c0.2792969,0.8543625,0.5092773,2.439743,0.6982422,3.5076981
	c0.3286133,1.7658768-2.3330078,10.8023605-2.817688,13.8578033c-0.5831909,3.7212906-5.0602417,10.0387497-5.4545288,10.9913864
	c-0.2053223,0.509407-0.1150513,1.371788-1.1746826,1.4540176c-1.2404785,0.1153183-1.7086792-0.2461777-2.4397583-0.4437256
	c-2.7437134-0.780159-5.0685425-2.719017-6.8346558-4.3289642c-1.807251-1.6099548-5.9885864-6.7606888-6.5142822-7.6150513
	c-0.3778687-0.6322479-1.7661743-1.6184769-2.4151001-1.0845032c-1.1665039,0.9451141-2.9162598,3.565361-3.7623291,4.1895828
	c-0.673584,0.4848404-1.9468994,0.9942474-2.6697998,1.7744064c-1.0843506,1.150177-2.3740845,2.6287689-3.6555786,3.7789459
	c-0.9610596,0.8543625-5.0438232,3.869194-5.8078003,4.6002197c-1.1746826,1.150177-2.5793457,3.0393982-3.4337158,3.66362
	c-0.8461304,0.6327515-3.7377319,2.4071579-4.6084595,3.3517685c-0.9611206,1.0514069-2.3165894,3.1953278-3.4419556,3.6716461
	c-0.7393188,0.3043518-1.7168579,1.5693359-0.9775391,2.2181396c0.7310791,0.6407623,3.1873169-0.500885,4.7891846-0.788681
	c1.2650146-0.254715,3.1873169-0.2872925,4.5509033-0.3775482c0.8625488-0.057663,1.6511841-0.9451141,3.6391602-1.5447693
	c1.7086792-0.5089111,2.8751221,0.2301331,3.6144409,0.0411072c0.9282837-0.2546997,1.4868164-0.6242218,2.9901733-1.0183105
	c1.6593628-0.4682922,3.9266357-0.1724777,4.8795166-0.5836105c0.6983032-0.2953186,0.6489868-0.5339737,1.9304199-1.3552475
	c0.8379517-0.5505219,1.9551392-0.0325928,2.8669434-0.2958145c1.1829834-0.2873001,3.3106079-0.8954773,5.5449829-1.7247696
	c1.7661743-0.649292,7.4589233-2.0291061,8.296875-2.1193619c0.8378296-0.0987701,2.0454102-1.8977432,3.4254761-2.4071503
	c1.7661743-0.6573181,5.1013794-0.0491333,6.4978638-0.8789291c0.8214722-0.4848404,2.7026367,0.5916367,3.581604,2.1770172
	c1.1418457,2.0205841-0.1560669,3.0639725-0.4682617,4.2301941c-0.8460693,2.9245758-1.651123,4.2306976-2.6122437,5.2821045
	c-0.9775391,1.0433807-1.3143311,2.9491425-2.9161987,3.3437347c-1.8236694,0.4843445-2.7848511,0.7555847-4.7810059-0.1479034
	c-3.5898438-1.635025-5.5038452-0.0742035-7.62323-0.5174255c-3.1626587-0.6738739-4.3702393,0.8949738-5.8570557,0.7801514
	c-0.7393799-0.0656891-3.1216431-0.4682922-3.828125-0.057663c-2.0536499,1.1993103-3.7130737,0.9120178-5.1095581,1.3226624
	c-1.1500244,0.3369293-1.6100464,1.45401-0.977478,2.0045319c1.100708,0.9365997,4.7562866,1.8646545,7.7382202,1.6841583
	c4.7562866-0.2792664,8.2639771,0.7310181,10.1780396,0.8704071c2.8587036,0.1975403,4.8548584,1.7578583,6.2431641,1.7743988
	c1.5689697,0.0085297,2.2097778,0.7641144,3.7952271,1.2158661c1.0678711,0.2792664,2.3329468,0.6653442,3.4993896,0.5670624
	c1.2815552-0.090744,2.2508545,0.8623962,2.7601929,0.6568298c1.9221802-0.7144775,1.9221802-0.5420074,2.9819336-0.7967072
	c0.8461304-0.2055664,2.571167-2.4317169,3.7459106-3.2364502c1.5197144-1.0514069,4.6248779-3.9840088,5.2820435-5.7669373
	c0.6654053-1.8566284,0.8625488-2.6533356,1.5361328-4.9782562c0.5750122-1.9629364-0.2874756-2.1354141,0.4847412-5.3066788
	c0.6900024-2.7681503-0.0164795-7.220459,0.5421143-8.9126358c0.3450317-1.0679474,0.2299805-1.5853806,0.550415-2.5465393
	c0.4517822-1.2735214,0.0164185-2.2261505-0.0574951-2.7440872c-0.0985718-0.6487885,0.8707275-2.012558,0.8707275-2.8669205
	c0.0164185-0.7390442-0.8132324-1.3878403-0.2710571-2.8584061c0.6982422-1.8731766,0.1642456-3.8280792,0.6818237-4.4442825
	c0.5421753-0.6322479-0.5914917-1.7002029-0.2711182-2.6698761c0.4929199-1.4294586,0.5339355-7.3272552,0.213562-10.3912277
	c-0.3532104-3.8366089,0.213623-9.0279541,0.3615112-10.9422455c0.0656738-0.9611588-1.2486572-1.7002029-0.8215332-2.5465393
	c0.5914307-1.1501846-0.0739136-2.9817429-0.2710571-4.4523087c-0.2628784-1.987999-0.887207-5.6436005-0.9611206-7.8777771
	c-0.12323-3.828083-3.7130737-26.024437-5.9885254-31.692606c-3.1954956-8.00914-11.6730957-16.3802795-15.1725464-17.9080029
	c-3.3187866-1.4705648-7.623291-1.2569742-10.3834229-1.3061104c-2.1193848-0.0330915-9.6687012,1.1582022-16.380127,3.3021278
	c-5.9638672,1.9057684-12.3220825,4.8634434-14.4003906,6.087328c-2.4643555,1.4540195-5.2573853,4.8138065-7.0974731,6.7115517
	c-1.9715576,2.0371304-2.4726562,4.4768753-3.03125,5.5939636c-1.5197144,3.0479259,0.0164795,6.8840275,0.3203735,7.9434566
	c0.5175171,1.8240433,0.0739746,3.0970612-0.673645,3.4009018c-1.6593018,0.6904068-0.9610596,0.7315216-4.0498047,1.109066
	c-1.0021973,0.1313629-2.8587036-0.7801552-2.9572754-1.5111771
	C531.2056885,40.4673615,529.5955811,37.3948708,528.7741089,35.4805794"/>
<path class="st1" d="M998.9076538,74.1168747c-1.7908325,0.9691849-7.196167,7.0153961-8.5762329,7.647644
	c-1.3553467,0.5916367-3.2776489-0.8789291-4.4605713-0.6899109c-3.088623,0.4848404-10.4490967,2.2592468-15.6407471,3.2038574
	c-4.3456421,0.788681-11.5827637,3.4831314-13.5379028,4.4934235c-1.3800659,0.7229996-1.4293213,1.7167435-0.6571655,2.439743
	c2.6287231,2.4728394,4.838501,3.6636276,6.0871582,5.2735748c0.8461304,1.1010437-0.4436035,1.5858841-0.7803955,3.4009018
	c-0.4190063,2.1770172-1.8565063,12.5933151-1.1747437,18.2288895c0.5750732,4.9206085,3.1708984,19.7395706,3.8444824,23.8223495
	c0.5996704,3.614502,1.0925293,8.5762177,1.5689697,10.4163055c0.6572266,2.604187-0.2875366,7.2289734-1.2568359,8.2638397
	c-3.5651245,3.8526459-9.1593018,9.5458832-10.6461792,10.0713348c-2.2508545,0.7641144-5.2000122,0.6738586-7.3029175-1.0514069
	c-2.7354736-2.242691-3.7541504-6.3089447-4.5756836-8.4363251c-1.4046021-3.6555939-5.4379883-6.4402924-8.2803955-8.4939728
	c-5.0109253-3.6230164-16.010376-9.2255096-17.6697998-13.168396c-0.2381592-0.558548-0.6078491-1.708725,0.5586548-2.1113434
	c2.2178955-0.7801514,3.2694092,1.9554138,4.7398682,3.0313873c2.78479,2.0371246,5.1669922,2.604187,7.1878662,3.2695312
	c3.1461792,1.0514069,8.7814941,2.4312286,10.1369019,2.8834686c3.2119751,1.0679474,4.8713379,1.5442657,7.3029175,0.7310181
	c1.684021-0.5585327,4.4277344-5.7749634,4.5755005-8.0096283c0.3204346-5.4134674-0.9200439-11.8041382-0.7720947-14.4494476
	c0.3943481-7.6396179,0.2299805-9.0610504,1.0267944-14.8520584c0.5751343-4.2226715-0.5339355-7.4260254-0.4107056-9.3403168
	c0.1395874-2.3660431,0.1725464-5.8326263,0.8296509-7.5162811c0.5586548-1.4214249-1.2074585-1.3557434-2.4397583-0.9942474
	c-5.8570557,1.7418213-8.5925293,4.4608307-13.6528931,6.8348999c-3.5322266,1.6590805-9.8493042,5.5037079-12.4124146,6.431778
	c-1.7907104,0.649292-3.211853,3.138176-4.2634277,2.1770172c-1.19104-1.1005402-2.8668823-0.780159-3.9018555-2.6944504
	c-1.5115967-2.8177872,0.9200439-5.4049377,2.8422241-6.5551224c2.5629272-1.5282211,4.8959961-0.583107,12.6999512-4.4031677
	c7.7792358-3.8361053,16.2322388-8.929184,22.5247803-11.4185638c6.152771-2.3986282,22.9107056-7.4180069,25.3670044-7.9519806
	c2.4397583-0.5174332,7.7546997-1.00177,8.600769-1.3798141c3.3186646-1.4374771,6.2842407-1.3963623,7.3521729-1.6019287
	c1.470459-0.279274,3.5979614,0.2466812,4.8795166,0.3695221C1000.15625,72.1454315,1000.6245117,73.1883087,998.9076538,74.1168747
	 M932.6971436,55.7977409c2.2342529-1.1416588,2.8340454,1.5282249,3.5897827,1.5362434
	c2.2180176,0.0165482,4.2141724,0.2712517,6.9989624-0.6653366c2.1439209-0.7144775,15.5996094-7.4505959,20.1669922-8.5676842
	c7.8286743-1.8897247,18.7460938-4.9617157,22.5576172-4.7070122c1.3060913,0.0737038,1.3800659,0.9691811,0.0903931,1.7001991
	c-1.4457397,0.8132477-1.8318481,2.8423576-3.0148315,3.9925385c-0.763855,0.7475662-0.4517822,3.0885353-1.1089478,3.9183311
	c-0.7803955,1.0268364-1.930481,1.5688362-3.3105469,1.5527916c-2.1357422-0.0250702-2.3411865-0.0250702-3.7130127-0.0496368
	c-1.5690918-0.0165443-4.7234497,1.9879951-5.8734741,2.2672691c-0.4271851,0.0902481-1.503418-0.8212738-2.5219727-1.0925217
	c-2.447998-0.6818848-11.6731567,2.9982872-15.2382812,4.5756493c-3.7376709,1.6676102-10.3670044,4.9205971-13.6856689,8.4363213
	c-1.2979736,1.3637695-2.6040649,3.9022827-4.715271,2.7109909c-1.9057617-1.0844955-2.6862183-5.4545746-3.1873169-7.3849106
	C929.2797852,62.3779297,929.4934082,57.4327583,932.6971436,55.7977409 M920.6954346,3.4289787
	c2.0125732,0.3369312,5.7255859,9.4060001,7.7957153,13.4642191c0.6900024,1.3141327,1.1090698,3.4334908,1.5115356,6.818346
	c0.1971436,1.5853825,1.6593018,4.5836716,1.2896729,8.1816177c-0.1889038,1.7989731,0.3285522,5.0439415-0.3121338,6.5882111
	c-0.4354248,1.0514069-2.1358643,2.0867691-2.1604614,3.581398c0,0.8709106-1.4047241,2.8423576-2.2672729,3.6801758
	c-1.3390503,1.2980881-2.1851196,4.7731934-3.0476685,5.906826c-1.6183472,2.0942917-5.7092896,2.0286102-8.6254272,2.8584023
	c-2.1358032,0.6242256-4.715332,1.9879951-6.949585,3.5322647c-2.2508545,1.5608139-6.2842407,2.9656982-9.093811,4.8634415
	c-2.1357422,1.4785881-6.5306396,5.8817635-7.8203125,6.9246407c-0.8953857,0.7229996-2.4069214,1.9308395-1.0021973,3.1712723
	c1.4786377,1.2810364,5.6352539,0.5996552,11.2213135,3.1050797c3.6882935,1.651062,6.9578247,3.918335,8.8225098,7.0068665
	c1.5690918,2.5630875,0.796814,4.7977676-0.9200439,5.8326263c-1.3800659,0.8212662-2.3165283,3.302124-5.265564,5.7749634
	c-1.4951172,1.2569733-2.571228,4.4442825-4.9699707,6.5225296c-1.8235474,1.5522919-8.4200439,8.5842285-10.9418945,10.4734497
	c-1.3966064,1.0433884-1.3719482,2.7932205,0.9036255,3.6064682c2.1193237,0.7721329,8.6747437,5.4054413,10.8269043,8.5270767
	c2.2918701,3.3186722,3.3105469,10.4654312,3.7377319,16.2729721c0.2711182,3.844635-2.3493652,9.6607056-3.4584351,13.6612701
	c-0.5585327,2.012558-0.9528809,2.8749542-3.5322876,2.4066467c-0.6818848-0.1313629-1.8400879-1.6756287-2.9408569-2.801239
	c-1.5690918-1.6099548-3.7705688-2.2587433-4.8466797-3.4580536c-1.2568359-1.3968658-3.0066528-2.193573-3.8773193-3.5488129
	c-1.0350952-1.6019287-0.9200439-8.9457245-0.3861694-12.215271c0.460022-2.743576,0.8954468-4.6989899,1.5772095-6.7772293
	c0.550415-1.6921768,1.6430664-7.2370071-0.4271851-7.6396179c-1.19104-0.221611-5.5612183,2.1604691-7.9107056,3.302124
	c-2.6122437,1.2649994-5.5531006,3.006813-6.8428345,4.4773788c-1.4458618,1.6425476-2.2755127,3.8937683-2.5136719,5.5859375
	c-0.2300415,1.6676178-1.4129028,2.8338318-2.1523438,2.4232025c-1.5689697-0.862381-3.1297607-0.1233368-4.255127,0.1559296
	c-1.5936279,0.4191589-2.6369019-1.0514069-4.4277344-1.7578583c-3.0805054-1.1993103-1.6676025-0.2627258-4.3292236-2.4808502
	c-1.6674805-1.404892-5.4052124-6.8920593-3.9923096-10.7692719c0.7557373-2.1113434,0.0245972-3.0805206,2.1769409-5.068512
	c5.2245483-4.8549194,7.2617798-7.5493698,12.5848999-13.3323593c2.7929688-3.0233536,7.5164185-7.9765472,10.4162598-10.3751755
	c1.1829224-0.9696808,2.2590332-2.7109985,3.1298218-4.7401047c0.5585327-1.2569733,3.6144409-3.5653534,1.6676025-4.8549194
	c-2.1112061-1.4129028-4.838501-1.5527954-6.3746338-0.9365921c-1.4951172,0.6162033-2.4562988-1.092514-4.2059937-2.0616989
	c-1.593689-0.870903-3.3433838,0.3118668-4.5673828-0.5750885c-1.4621582-1.0925217-2.2014771-1.8481064-3.5651245-2.8177872
	c-1.2815552-0.8954773-3.6637573-2.2015839-2.4972534-4.5916901c0.8624878-1.7989731,0.1477661-4.3540421,2.0864868-5.8160782
	c2.4644775-1.8731804,4.1730347-3.7543793,5.9063721-5.2329674c3.3187866-2.8258095,12.4699707-13.4226036,18.614563-20.4710884
	c6.4731445-7.4014587,18.3434448-25.0382118,22.9765015-29.753746c0.9611816-0.9857244,0.550415-3.3021278,5.479248-5.8817587
	C915.9309082,2.6242542,918.2883911,3.0183434,920.6954346,3.4289787"/>
<path class="st1" d="M777.5565186,26.8472118c0.4026489,1.7989731-1.1582031,8.4689121-3.0393677,14.178194
	c-1.8812256,5.7092819-2.3165283,7.6070251-3.9758911,12.7903557c-0.7475586,2.3003578-2.234436,1.2569733-3.0888062,2.1935616
	c-0.9775391,1.0433846,1.1665039-0.829792-2.9161987,3.1542206c-2.480835,2.4071541-7.6972656,5.6190338-9.1101685,7.2044144
	c-0.7475586,0.8378143-2.3493652,0.4026108-2.6533203-1.1912918c-0.1889038-1.0428848-0.1724854-2.0205879-0.24646-4.148468
	c-0.090332-1.8069954,1.5115967-4.0251274,1.8648071-4.969738c0.5421143-1.4785881,1.4293213-4.4442863,1.4376221-6.3415298
	c0.0492554-3.6144905,3.9429932-8.4448433,6.9578247-12.0267448
	C765.7848511,34.1253319,777.5565186,26.8472118,777.5565186,26.8472118 M758.7202148,83.3890076
	c1.6019287-1.1421585,1.4622803,1.930336,2.9655762,1.6179733c0.9281616-0.1724777,1.7168579-1.3386993,2.3329468-2.0782471
	c0.5421143-0.6322479,1.3553467-1.1005402,1.9140625,1.6099548c0.2875366,1.4871063,0.5667725,2.9000168-0.2628784,3.9188309
	c-1.2979736,1.5853806-8.6501465,4.2467422-9.9398804,4.7807159c-0.9036255,0.3534775-1.1911621,0.7395401-1.5689087-1.0844955
	c-0.5011597-2.348999,2.2589722-3.5894241,2.3740234-4.6573792
	C756.7733154,85.5575027,757.3894043,84.3336182,758.7202148,83.3890076 M774.6650391,116.058815
	c1.4868774,0.2381592,5.3312378-1.9468765,6.9414062-3.2118759c1.1582031-0.8874512,2.2261963,0.4682922,1.5771484,1.6345139
	c-0.7064819,1.2324142-3.244751,4.1976089-3.7786865,5.569397c-0.3286743,0.7972031-1.1993408,1.3637695-1.8236694,1.1421585
	c-1.2404175-0.4271774-2.9573364-1.1912918-4.1320801-1.8646545
	C771.9705811,118.5065842,773.2930908,115.8452301,774.6650391,116.058815 M740.4671021,118.3015137
	c0.5011597-1.1832657,3.4748535,2.2752914,5.3724976,2.719017c2.0372314,0.4843369,4.3373413,1.429451,6.8756104,2.1028137
	c3.4748535,0.9120255,7.1797485,2.9411316,9.8084106,4.7812195c1.8236694,1.2649918,4.2305298,1.7658768,6.3088989,3.9017868
	c0.8051147,0.7966919,0.5256958,1.9137878-0.1149292,2.6453094c-0.7558594,0.862381-1.1911621,1.8972473-2.5959473,2.8503723
	c-3.6144409,2.439743-15.6982422,8.8223877-17.3083496,10.1696167c-2.0619507,1.7418213-5.9638062,0.788681-7.2371216-0.4026184
	c-1.1090698-1.0428772-2.2672729-2.6282654-2.5794678-4.7972565c-0.5010376-3.3923798-0.7310181-9.7835388-0.4764404-12.8475189
	C738.7338257,126.5242462,738.8242188,122.1045303,740.4671021,118.3015137 M701.6855469,120.0508499
	c0.0245972-0.7470627,3.8526611-2.4888763,5.9802856-3.5322647c2.0700684-0.9857254,3.9594727-1.8646545,5.7749634-2.0536728
	c0.8953247-0.0982742,1.9140625,0.6904068,1.5772095,1.8320618c-0.5586548,1.7824249-8.8390503,9.7589798-11.7388306,12.9051743
	c-0.6160278,0.6653442-1.7990723-1.7167435-1.8647461-3.2118759
	C701.3323364,124.2980957,701.6772461,121.6773453,701.6855469,120.0508499 M695.1137695,102.3649673
	c1.1828613-0.1398926,1.6593018,1.5522842,0.7064209,2.9651947c-0.6407471,0.9446106-2.447998,1.4540176-2.8751831,0.928566
	c-0.6817627-0.8874512-0.0738525-1.7006989,0.9858398-2.4317245
	C694.8673096,103.1696854,694.2593994,102.4552155,695.1137695,102.3649673 M704.6345825,71.0503998
	c2.1193237-0.1809998,2.1851807,0.8297958,2.3165283,0.9937515c0.5258179,0.64077,1.6759033,3.3352203,2.4972534,4.2718048
	c0.7229004,0.8543625,1.3061523,1.8400879,2.5137329,2.2672653c0.6326294,0.205574,0.7064209,3.0724945,0.5831909,4.3620605
	c-0.1313477,1.3717957-3.458252,1.938858-5.1259155,3.2118759c-1.0760498,0.837822-1.6922607,1.5277252-2.3740234,2.4071579
	c-0.8625488,1.1742477-1.0761108,1.8069916-2.2590332,2.8503799c-0.9694214,0.870903,0.2053223,5.4300079-0.5093994,7.5247955
	c-0.336792,0.9526367,0.9447632,0.8543625,1.9962769,0.8869553c0.5421143,0,0.7145996-1.0022736,1.3964844-1.5934067
	c0.854248-0.7229996,3.2201538-2.4236984,4.4030762-3.1216278c0.8460693-0.5259552-0.2711182-3.4094238,0.9857178-3.6967163
	c0.8707886-0.2055664,0.9036255,2.9326019,1.4458618,4.1564865c0.4106445,0.9531326,1.774292,4.5099716,1.3964844,5.9559631
	c-0.336792,1.2649994-0.5668335,2.6779022-0.9858398,3.4911499c-0.4434814,0.837822-5.569519,3.0474243-5.0438232,5.2409897
	c0.2958374,1.2815399,4.0909424-0.5013885,6.0296631-0.3534775c1.5032959,0.1153183,4.3291016-0.1479111,5.6434937-0.1479111
	c1.2650757,0.0165482,3.7294312,1.9142914,5.1424561,4.4197235c0.7310181,1.2815399-4.501709,5.8652115-7.2290039,9.3563614
	c-2.6861572,3.4665833-13.2009888,12.3631744-15.3450317,14.4659882c-1.0926514,1.0679474-0.3943481,4.994812-1.2404175,5.495697
	c-1.0268555,0.6407623-1.9387207,0.0165405-3.0723877,0.287796c-0.8624878,0.1970367-2.3329468,0.7721252-2.784668,1.7743988
	c-0.4354858,0.9446106-0.5175781,1.7001953,0.2956543,2.1193542c1.0513916,0.5339813,12.1495972-5.0604858,17.5302124-9.8657684
	c5.6106567-5.0439453,13.315918-12.7988815,16.1171875-16.3637314c2.1604614-2.7440872,1.3390503-14.3100586,3.8199463-25.6383743
	c1.1417847-5.2078934,3.6554565-22.0318985,5.4462891-29.9673386c2.0701294-9.0770912,9.1676025-23.1570091,10.5148315-25.2437782
	c0.5339355-0.8292923-0.0411377-1.6676102,0.4517212-2.439743c0.5586548-0.8292923,0.7475586-1.4620438,2.6616211-0.5911369
	c0.7721558,0.3529778,2.0043945,1.8235435,2.7272949,1.5111771c1.6757812-0.6899071-0.8624878,0.7395477,5.175293-5.1256676
	c6.0050049-5.8817577,11.7798462-8.7817745,14.9835815-11.1804047c3.2202759-2.4066525,5.3807373-5.1341934,6.9742432-5.8571911
	c1.3308105-0.5996571,2.571228-0.0325909,3.0640869,1.3146343c0.5093994,1.3883381,0.6408081,3.4174461-0.0737915,5.9308949
	c-0.4354858,1.6019268-1.6183472,3.8280811-3.0559692,7.1878681c-0.5749512,1.3226547-2.3082275,8.0587769-3.5487061,11.7304268
	c-1.2322388,3.688694-2.7026978,12.4373779-3.5651855,13.9651031c-1.2979736,2.3164024,0.213562,2.9000168-0.7064819,5.4134636
	c-0.2875366,0.8217735-1.9715576,4.6744232-3.0558472,6.8509369c-1.0843506,2.2266541-4.2470703,9.2009354-4.8959961,9.8166351
	c-0.8132324,0.8052292-0.2381592,2.497406,0.1724854,3.1873093c0.5339355,0.8543625,3.4420166,2.6618576,5.4381104,7.5002365
	c0.6160889,1.4951324,0.4107666,3.0393982-0.8049316,4.6578751c-0.8707886,1.1496811-4.3292236,2.2587433-6.2925415,3.2118759
	c-2.5793457,1.2404327-12.8149414,6.4237595-16.2486572,9.2495728c-0.7557373,0.6242218-2.0125732,0.4602661-1.6923218-0.6733627
	c0.550415-1.996521-0.1149292-8.157547,0.6408081-10.2683868c1.1500244-3.138176,0.673584-1.9057693,3.2612305-5.4791412
	c1.3719482-1.9142914,4.2470093-8.8720245,7.3686523-12.3386078c0.3120728-0.336937,0.9445801-2.1028137-0.0739746-2.7521133
	c-0.8460693-0.5419922-1.897644,0.56707-2.9655762,0.9120255c-0.6489258,0.2135925-0.763855,1.8069916-1.527832,2.1108322
	c-1.133667,0.4768219-2.2261353-0.7144699-3.2941284,0.1729813c-0.7392578,0.6156998-2.1276245,3.6551056-2.3987427,5.7007599
	c-0.1068115,0.8463364-1.5606689,1.9634247-1.9468994,2.521965c-0.4271851,0.6407776-0.1395874,3.3928833-0.3860474,5.3146973
	c-0.2792969,2.3083801-2.4644165,8.2066803-2.9901123,10.6709976c-0.336853,1.5853806-0.9940186,5.1341858-0.8297119,7.1963882
	c0.0820923,1.1827698,0.6079712,2.0040436,1.4621582,1.8315659c0.9528809-0.2050705,1.6265259-1.8315659,2.5795288-1.987999
	c1.1582031-0.1890182,4.9944458-0.2627258,6.6702881,0.1975479c0.7885742,0.2050705,2.2180176,1.1993179,4.7810059,0.6899109
	c1.4539795-0.279274,3.6965942-0.9035034,5.4216919-0.8874588c1.6921997,0.0165482,9.9644775,0.0165482,13.472168,0.057663
	c1.2813721,0.0165405,8.4282837-3.5076981,10.6708374-4.5510788c1.8482666-0.837822,6.3006592-5.0108566,9.3319092-8.1570511
	c1.7414551-1.7824249,5.7749634-3.006813,7.8860474-2.0210876c1.0596924,0.4933624,0.4190674,3.6641312-1.2156982,4.8714676
	c-1.2896729,0.928566-4.378479,2.5961761-5.8898926,3.639061c-2.4069214,1.6676102-6.2597046,6.448822-8.083374,9.5704498
	c-0.8707886,1.4620438-3.6637573,5.4545822-5.0848999,8.0011215c-0.2792969,0.4928589-0.2957153,1.7332916,0.8133545,2.8669205
	c1.0513916,1.0759735,9.8247681,3.4169464,13.9485474,4.8383713c0.3613892,0.1313629,0.9446411,0.8623962,1.807251,0.558548
	c0.5668335-0.2055664,1.3717651-0.5093994,1.470459,0.9691772c0.0492554,0.7230072,5.8076782,0.8709106,6.4648438,1.347229
	c2.1932983,1.635025,10.6627197,3.5322571,13.4147339,5.2575378c1.0349731,0.665329,1.3636475,0.9200439,2.3082275,2.0536652
	c0.6243286,0.7556,2.2097168,0.7144775,1.9962769,1.832077c-0.2382812,1.1581879-16.5361938,5.1998749-22.3604126,4.9205933
	c-5.0028687-0.2466736-10.1781616-0.8709106-14.9344482-2.5219727c-4.22229-1.45401-12.3137817-7.565918-13.4967651-7.5824585
	c-1.9058228-0.0325928-1.7086182,0.4026184-2.9901733,1.6595917c-0.3613892,0.3369293-1.0185547,1.511673-1.9385986,2.4066467
	c-1.0843506,1.0599365-4.8220825,4.7401123-5.5942383,5.7669525c-1.0843506,1.4866028-3.6309204,2.0536652-5.2409668,3.3432312
	c-1.1747437,0.9365845-3.4501953,3.4585571-4.838501,4.3951569c-2.5548096,1.724762-5.7666626,3.8691864-7.6890259,4.6824341
	c-1.9550171,0.8212738-5.3806152-0.4191589-8.2803955-0.8463287c-3.1708374-0.4597778-7.0482178-3.8115387-8.510376-6.6869965
	c-0.8624878-1.7082214-0.8296509-5.9800262-1.2732544-8.5019989c-0.3039551-1.7001953,1.0513916-6.9411774-0.0083008-7.6396179
	c-1.4703979-0.9777069-2.2589722,0.1313629-2.9818726,0.9200439c-1.1829834,1.2484589-2.5876465,3.6721497-6.3500366,6.2843781
	c-1.6428833,1.1496735-1.6593628,1.954895-3.5322876,3.7704163c-1.4047241,1.3637695-4.6824341,3.3186798-6.9906616,5.2244415
	c-2.2263184,1.8811951-6.3006592,3.0228577-8.9458618,3.4911499c-0.9611816,0.1890259-3.614502,1.8155212-5.1259155,2.497406
	c-1.3883667,0.6081848-5.7996826,2.1439209-8.5269775,2.9737244c-1.7085571,0.5093994-2.5053711-3.2118835-2.8997192-5.7584229
	c-0.3861084-2.5630798,0.5914917-5.2164154,2.1029053-6.0296631c2.4891357-1.3883362,6.4238892-5.9639893,8.5762329-8.2803955
	c0.5585327-0.5996552-0.550415-1.9879913-1.5690918-1.938858c-3.4994507,0.1809998-5.7174683-1.3306732-5.7174683-1.3306732
	c2.5548706-0.4026184,6.9004517-0.5420074,8.4283447-2.4562988c0.2546997-0.2872925,0.9611206-0.9446106,0.9611206-1.7824249
	c0.0328369-1.2484436-0.3860474-1.5608063-0.4928589-2.3575134c-0.1067505-0.591629,0.7229004-1.6350174,0.4436035-2.20961
	c-0.3039551-0.6327438-0.9036255-2.1444244-1.9715576-1.5036545c-2.234436,1.3146362-6.0870972,5.1341934-7.1057739,7.1221848
	c-0.6489258,1.2735291-0.7802734,2.6453094-0.7802734,2.6453094c-0.6408081,0.6242371-1.8155518,0.0822296-1.8155518,0.0822296
	c-2.0372314,2.1028137-5.2573853,5.6681671-6.8674316,7.0234222c-1.1912231,1.0268402-2.8341064,1.7663727-4.1401978,1.1336365
	c-1.593689-0.7806702-2.6452026-4.0827942-3.3598022-5.1422272c-0.6079102-0.9611511,0.2463989-2.3494873,1.2074585-2.9576721
	c1.4540405-0.9280701,5.2573853-2.9080353,6.3171997-3.860672c1.1829224-1.0268402,6.2348633-6.0627594,7.4179077-7.00737
	c1.8810425-1.5111771,4.5015259-3.219902,6.0048218-4.8218307c1.0679321-1.1581955-0.2628174-2.5550613-1.0513916-1.9142914
	c-0.6407471,0.5179367-1.593689,0.3043442-1.9961548-0.6487885c-1.0350952-2.4066544-3.1955566-8.3295288-3.15448-10.5642014
	c0.0081787-1.3798141,0.0245972-2.13591,0.5585327-3.3843613c1.6348267-3.7869644,7.072937-10.9091492,8.7651367-12.1987152
	c1.5855103-1.2489548,0.6325073-2.4562912,0.12323-3.3928833c-0.6160889-1.1827698-3.7377319-5.0354156-3.6309204-6.4157333
	c0.1726074-2.0536728,3.244812-3.8772125,6.2268066-5.9720078C699.4922485,73.5227356,702.506958,71.2474442,704.6345825,71.0503998
	 M714.7880249,39.2349548c0.7721558-1.5853806,5.9638672-1.938858,8.296814-1.5036545
	c2.1029053,0.4271812,4.6412964,4.5756454,5.4381714,6.5470963c0.5175171,1.2735214,1.3964844,3.9845161,0.9939575,5.0028305
	c-0.5422363,1.3717918-2.7437134,1.3717918-4.8959961,1.9634247c-0.7721558,0.1970482-2.7601318,0.9280663-4.1730347,1.6345215
	c-1.7990112,0.9365883-4.0170288,2.8834686-4.8056641,3.6641273c-0.8706665,0.8378143-2.3082886,1.2073364-2.9901733,1.0183144
	c-0.4188843-0.1067963-0.4106445-1.322155,0.3286743-2.1028137c1.4046021-1.4785843,3.15448-5.5939636,2.7601318-7.1958885
	c-0.1972046-0.8217735-1.0515137-1.1747475-1.1254883-3.7298126
	C714.5744019,43.2515602,714.1389771,40.5571098,714.7880249,39.2349548 M714.0651245,10.6719999
	c0.854248-0.2050667,1.4457397,1.2489529,2.7601318,1.8405886c0.9364624,0.4352026,1.347229,1.2895641,2.2918701,1.3061104
	c1.3143921,0.0080214,1.3636475,2.0286074,2.1029053,2.6779022c0.6243896,0.5339756,1.4622803,2.5465393,2.1851807,3.2118778
	c0.8460693,0.7555885,1.1500244,1.7252693,1.9879761,2.3575172c0.9118042,0.6899071,1.1746216,3.0805149,0.0656738,4.4608307
	c-0.8707275,1.0594292-2.2425537,2.4808578-4.0826416,3.0308781c-1.6923218,0.509409-5.4464111,0.6242256-7.5576172,1.9142914
	c-1.7250366,1.0514069-4.8959351,3.5568314-6.6620483,5.4545784c-3.3187866,3.5488091-7.1139526,9.7755203-10.1452026,15.049099
	c-2.0700684,3.5653572-9.7590942,16.7417793-12.0592041,21.9085579c-0.9528809,2.1604767-5.8652954,12.6509781-7.6150513,16.4625092
	c-2.3001099,4.9617157-7.9025879,15.7721024-9.0526123,18.6801376c-1.5278931,3.918335-0.640686,7.1963959-1.6921997,8.6910248
	c-0.9692993,1.3722916-2.8751831,1.2324066-4.041687,0.3700256c-1.1500244-0.8628845-2.998291-2.5961761-3.4501343-4.3951492
	c-0.4024658-1.5934067,0.4271851-5.2981491,0.9364624-7.2044144c0.336792-1.2730255,1.0022583-2.1273804,2.0536499-2.6202469
	c0.6408081-0.3123627,1.7169189-0.0080185,2.6533813-0.3940887c0.7147217-0.3043442,3.7705078-5.3728485,5.3067627-8.2147064
	c2.0125732-3.7624054,7.3603516-15.0661469,8.600769-17.7275085c0.7557373-1.6264954,3.828064-8.5350876,6.0953369-12.7738037
	c1.4046631-2.6372948,8.3296509-21.6538582,11.6813354-26.2791443c0.7720947-1.0679512,4.3291016-8.6087971,6.5142212-12.0177212
	C704.8973999,23.4051991,712.7836304,10.9763412,714.0651245,10.6719999"/>
<path class="st1" d="M413.9111328,134.1844177c0.6407776,0.0165558,1.0515137,0.5424957,1.2568359,1.6019287
	c0.2629089,1.4785919,0.0821838,1.4705658,0.2793579,2.7440948c0.1971436,1.2564697-0.2793579,1.5853729-0.0493469,2.6367798
	c0.3121948,1.2569733,0.1889648,1.9714508,0.2875671,3.2775574c0.1889343,2.2015839,0.2628479,4.1976013-0.1725464,5.5779266
	c-0.4353333,1.3472137,0.0903625,1.7743988,0.0739441,3.1461945c-0.0164185,1.2649994-0.7557678,3.2610168-0.9036255,5.1667786
	c-0.1314087,1.5773621,1.4211731,3.1792908,1.4046936,5.0770416c-0.0082092,1.150177-0.5174866,1.1416473-1.5853882,1.0268402
	c-1.1665344-0.1153259-2.5383911-0.8709106-2.9326477-1.8235474c-0.4189758-0.9696808-1.6429749-4.1239014-1.6264954-5.2906189
	c0.0164185-1.2649994,0.3860474-3.5814056,0.5914307-5.0599976c0.230011-1.5693359-0.1725464-3.450531-0.1478882-4.9451599
	c0.0164795-1.7994843,2.144043-3.6556091,2.1604614-5.4631042c0.0411072-1.7824249-0.3778687-1.9960175-0.353241-4.2056274
	C412.2189636,135.4333801,413.065033,134.1844177,413.9111328,134.1844177 M431.2523804,52.2840271
	c-0.0820923-1.1582031,4.1155701-3.7378311,6.1939392-5.0850563c1.8975525-1.2238846,3.367981-2.9651985,4.9862671-3.828083
	c2.3330078-1.2404289,4.4523621-0.8543625,5.8078003-0.7721329c2.1029968,0.1313629,4.6659851-1.0022697,5.7913818,0.3860664
	c1.0350647,1.2815437,0.7311096,2.3329506,0.3778687,3.7869682c-0.2710571,1.1667252-6.3499146,10.687542-9.2415466,14.1210327
	c-3.0147705,3.6064682-10.4736938,12.1661301-11.204834,12.6098557c-0.8707275,0.5254517-1.5525513-0.7395401-1.774353-2.5385132
	c-0.1971741-1.5853806-0.4107666-2.9240875-0.0657349-3.6967163c0.4353943-0.9360886-0.0903931-1.5357513-0.2875061-2.4232025
	c-0.1807251-0.9611549-1.1418457-4.4442863-0.9611511-7.0645294
	C431.0141602,55.873951,431.4002991,53.9847298,431.2523804,52.2840271 M381.0358887,82.6620026
	c0.2629089-0.6407776,3.0722961-2.0616989,4.3455505-3.1050873c0.887207-0.7064514,3.0805359-2.1770172,3.9430847-2.9080353
	c2.4479675-2.0867691,2.127655-1.6841583,4.3702087-3.2038574c1.0432739-0.7310257,2.5301208-1.2404327,2.7272949,0.9696808
	c0.2218018,2.6448059-0.0985718,7.3763885-0.0164185,9.0685654c0.0739441,1.6761322-0.3450012,2.1113358-0.4682312,3.4751053
	c-0.0903625,1.1582031,0.4024963,1.7909546,0.4928589,2.5385208c0.1068115,0.7310181-0.1396179,0.9446106-0.336792,2.3078766
	c-0.1068115,0.8543625,0.5093384,2.1198578-0.2464294,3.5819016c-0.7640076,1.4620438-4.805603,4.6824417-6.0706787,5.0850601
	c-1.2732544,0.4186554-0.4107361-1.8897247-2.4972534-3.4009018c-2.0865173-1.4951324-2.5958862-3.6144943-3.5241394-5.0930786
	c-1.1500549-1.8405914-0.8050232-2.7521133-2.1604614-4.3540344
	C380.2472534,86.0137634,380.2719421,84.4529495,381.0358887,82.6620026 M354.4859924,57.1715355
	c1.2896729-0.3940887,3.8280029,4.5510826,6.3088684,7.2289848c2.4972839,2.6698761,6.2185059,6.0296707,6.9906921,6.7200775
	c0.8378906,0.7390442,2.801239,3.720787,3.5323486,3.7373276c0.3860474,0,2.7930298-2.0616989,4.7891541-3.4169464
	c2.127655-1.4540176,6.9332275-4.7481232,8.3954773-5.7092819c1.1993103-0.788681,4.8630676-3.4505348,7.1221008-5.1838264
	c2.2672729-1.7247696,7.179657-4.9286232,7.3521423-5.3803749c0.0903931-0.2877922-0.1149902-1.3803139,0.657196-3.4751053
	c0.4764404-1.2895622-0.5585938-1.8481064-0.5996704-2.1108322c-0.0903625-0.5339775,0.550415-2.1113396,0.6654053-2.9491539
	c0.2382202-1.5773621-0.1478271-4.8138084,0.0739136-5.4711227c0.5503845-1.6841583,0.7311401-5.1998749,0.8050842-6.2021446
	c0.2546387-2.8914948-0.0903625-4.1238995,0.2792664-5.2821026c1.240448-3.8441257,1.3554382-6.9331646,1.0679016-9.7915649
	c-0.2382202-2.3991318-0.8050537-2.628767-0.1314392-6.3174639c0.6243591-3.3266954,3.6391296-6.8674836,5.0109863-8.4774342
	c0.9118347-1.0433846,3.6473389-1.2158611,5.725647,0.8052258c0.7721863,0.7636108,2.6286926,1.6099501,4.3948975,3.4254684
	c1.7004395,1.7578592,4.9205933,5.7092819,6.0296021,6.7110519c1.7661438,1.6264954,5.1916504,5.9725094,7.3685608,8.7406616
	c1.6676025,2.1028118,2.5630188,5.9394169,2.7519226,7.3026848c0.3039551,2.0947914-0.1478577,4.8469009,1.2650452,5.1181488
	c2.0290527,0.3940887,5.9885559-3.0233574,12.3303528-4.2141495c4.2058716-0.7972031,11.0734253-0.5996552,15.6078796-0.5505219
	c2.0126343,0.032589,5.9064026-0.1479073,6.2267761,0.788681c0.6078796,1.7167435-0.4436035,6.9331665-3.0230408,12.7572632
	c-2.2672119,5.1261711-3.5158386,6.1033707-6.1199341,9.3894577c-2.1358337,2.7275391-2.447998,4.4442825-6.3417664,9.5208168
	c-3.7541199,4.9206009-11.2130432,12.0919266-9.7426147,13.4802628c1.2486267,1.1912918,4.9370117-0.5750885,5.5531006,2.1850433
	c0.5011292,2.2181244-1.9386597,3.6556015-2.8258057,5.8491669c-1.1829529,3.0639648-0.4682312,5.2735748-3.2202148,6.6127777
	c-2.5383301,1.2238846-4.0252075,0.7966995-5.6270752,1.8320618c-1.9058228,1.2404327-1.1746826,4.41922-2.3986816,6.7110519
	c-2.1604614,4.0827866-1.0432434,7.9930954-2.3576355,11.2952271c-1.9879456,4.9451675-1.5115051,3.0148315-3.1297913,8.1901398
	c-0.3614197,1.1090622-1.1500549,6.7937775-1.6018677,8.7732544c-0.3778381,1.7006989-1.6758118,3.0559387-1.7250671,3.6721497
	c-0.1478577,1.7498322-1.0021973,6.234726-0.9282532,6.7361145c0.0985718,0.6322479-1.0843811,1.4785919-0.9857788,2.6202393
	c0.0985718,1.0764771-1.0268555,3.7298126-1.2240295,5.5779266c-0.7721252,7.3026886-0.1231995,8.2803802,0.1725464,12.3386078
	c0.2792664,4.0577087-0.4928589,4.9451599-0.9282532,6.0211334c-0.3861389,0.9777069-1.914032,1.2158661-2.9655151,1.5197144
	c-1.1582642,0.3123627-1.0761414,1.5693359-1.7990417,1.7989655c-0.8625488,0.287796-2.0783081-0.6157074-2.4726257,0.0822296
	c-0.8214722,1.4294434-1.6839905,3.2118835-2.7519226,3.3026276c-1.0925293,0.0817261-1.4622192-0.5505219-1.774353-2.2266541
	c-0.0821533-0.4517517-1.1418457-0.558548-1.3308105-1.4866028c-0.3203735-1.5116882-0.6407471-0.5916443-1.9961853-3.0639801
	c-1.1089478-2.0536804-0.1560669-2.7766724-0.2792664-4.6247864c-0.0903931-1.4294434-1.9879456-2.7195129-1.5115051-4.9702301
	c0.2546387-1.1993256-0.0739441-3.6305389-0.3203735-5.6516266c-0.2792969-2.3249207-0.3696594-3.9348755-0.3696594-4.5425568
	c0.0164185-1.0599365-0.336792-0.0245667-0.0575256-3.3683167c0.2464294-2.9406281-0.6654053-5.3803711-0.6654053-6.2181854
	c0.0164795-1.0679474-0.4024963-1.8074951-1.2321472-1.8074951c-0.6818237-0.0080261-1.0350647,0.3780518-1.3965454,2.0617065
	c-0.3614502,1.6841431-0.4024963,5.068512-0.1889038,7.0895996c0.1806641,1.8977356,1.3800659,7.1713104,1.453949,8.8634949
	c0.1315002,2.2592468-0.1149902,1.1667175-0.0410461,4.2141418c0.0246277,1.5031586,0.7146606,5.1998749,1.2568359,7.2209625
	c0.5422058,2.0371399,1.7086792,1.9634247,2.0947266,3.3678131c0.4025574,1.4785919,0.8051147,2.7521057,1.3226013,3.5979462
	c0.6654053,1.1175842,3.2447815,1.7252655,2.9162598,2.358017c-0.3861389,0.7721405-1.5033569,2.2998657-2.3494263,2.3986359
	c-1.7086792,0.1890106-4.7973938-3.3271942-5.4217529-4.8714752c-1.1089478-2.7521057-1.8482971-12.6178741-2.4315186-16.2077942
	c-1.0022278-6.0376892-2.0290527-8.6990509-2.7601318-15.4271545c-0.7640076-6.9577332-2.4315491-25.1535263-2.3905029-29.0061722
	c0.0328369-2.5380173-1.6429138-3.3923798-2.5629578-3.4500427c-1.1090088-0.0576553-2.5301819,1.125618-2.6122742,2.3329544
	c-0.0986023,1.4705658,0.2464294,4.9536896-1.3143921,5.569397c-1.2568359,0.5013809-10.2929993-2.0125656-17.3002014-6.637352
	c-11.4676819-7.5739365-15.5422058-26.3362961-17.4479675-29.9342422
	c-2.5794373-4.8880157-2.6534119-15.0410767-2.1112061-17.004509
	C351.7833252,60.0469856,352.5637207,57.7551498,354.4859924,57.1715355"/>
</svg>
