<?xml version="1.0" encoding="utf-8"?>
<!-- Generator: Adobe Illustrator 28.0.0, SVG Export Plug-In . SVG Version: 6.00 Build 0)  -->
<svg version="1.1" id="Слой_1" xmlns="http://www.w3.org/2000/svg" xmlns:xlink="http://www.w3.org/1999/xlink" x="0px" y="0px"
	 viewBox="0 0 1000 536.5324097" style="enable-background:new 0 0 1000 536.5324097;" xml:space="preserve">
<style type="text/css">
	.st0{fill:#005CA9;}
	.st1{fill:#1C1C1B;}
</style>
<g>
	<path class="st0" d="M641.4277954,161.0176392c-2.3551025-1.3909607-7.0725708-0.9482117-7.0725708-0.9482117h-56.6342773
		c0,0-5.3811035,0-6.9934692,0.8218536c-1.1218262,0.4900208-2.6550903,1.5882263-2.6550903,1.5882263l-69.1197205,69.0961151
		c-1.0663757,1.0904846-2.9000854,1.0904846-4.0060425,0l-69.4515381-69.4279327
		c-1.0591736-1.1300507-1.0591736-2.9237366,0-4.1169739l69.4515381-69.4202118c1.105957-1.0350266,2.9396667-1.0350266,4.0060425,0
		l63.7859192,63.6754761c0,0,3.381958,2.9869232,6.4561768,3.8005676c2.9077759,0.8218536,7.2142944-2.1332397,7.2142944-2.1332397
		l33.4416504-33.7657547l-88.3058472-88.1481552c-18.3802185-18.3724785-40.4428101-17.1633377-48.2976379-15.9146481
		c-69.4829407,11.4499416-122.395752,71.7352905-122.395752,144.5374298
		c0,80.8460388,65.5559998,146.4256439,146.3788757,146.4256439c78.9418945,0,143.3519287-62.9717712,146.3547974-141.2500153
		C643.585144,164.9055023,643.3478394,162.2185822,641.4277954,161.0176392 M539.8859863,32.9085121l78.3095703,78.6419067
		l23.0662842-22.8921738c0,0,2.7737427-3.4373932,3.4215088-6.6456909c0.6240845-2.8687515-2.4810181-7.0407028-2.4810181-7.0407028
		l-47.5075684-47.2312508c-52.9123535-51.1263542-114.0591125-15.930563-114.0591125-15.930563
		S506.4756775-2.1922641,539.8859863,32.9085121"/>
	<path class="st1" d="M811.5466919,414.9851685c-3.15625,6.0990295-7.507019,11.5220032-12.5517578,16.1892395
		c-0.4511108-0.5358887-2.1755981-2.7356262-2.6567993-3.3023987c-2.6869507-3.7349243-4.6490479-7.6100464-6.1660156-12.6369324
		h-15.8969727c1.663147,5.3742371,4.8986206,13.0393066,7.4698486,17.3469543
		c11.4491577,18.1268311,28.5037842,28.7291565,45.9422607,28.9481812v-14.5503235
		c-6.0994263-0.2008057-12.5030518-2.8271179-18.2856445-6.6535339c7.494751-7.0678406,13.5696411-15.6898193,17.5968628-25.2192078
		L811.5466919,414.9851685z M551.3223877,359.5198364h-42.1886902v11.2170715h42.1886902V359.5198364z M906.2393188,391.8374023
		v10.5777588h55.2827148v42.5907288c0,3.3938904-2.7051392,6.0625916-6.0380249,6.0625916H931.026062v10.461731h34.7976685
		c10.06604,0,18.1331787-8.1827698,18.1331787-18.3216858l0.0855103-40.7933655H1000v-10.5777588H906.2393188z
		 M605.1000977,430.8393555c-7.5799561-3.8505859-14.7939453-8.341217-21.4720459-13.5752258l-25.5119019-0.0673218
		c8.0853271,8.7376404,17.407959,16.2748108,27.546936,22.6483154c-9.6699829,3.3265686-19.9550781,5.3251343-30.6422119,5.73349
		v15.464447c18.041687,0,35.1022949-3.9179077,50.4994507-10.8823547
		c15.769043,6.5866089,32.9761353,10.419342,51.0602417,10.5837097v-15.6165466
		c-10.9429932-0.8285828-21.4597778-2.9249573-31.4707642-6.0871582
		c9.6696167-6.7268066,18.3585205-14.7816467,25.7919312-23.9399109l0.1524658-13.1973572h-94.9730225v11.8935242h71.0148926
		C620.5641479,420.4017944,613.1430054,426.0991821,605.1000977,430.8393555 M897.0267944,370.2861633
		c-8.414856,16.8292847-26.3773193,32.1654358-45.1255493,41.1771545l8.4996338,13.5023499
		c4.2105713-1.7914124,8.4085083-3.8751526,12.3632202-6.1235962v42.8283691h20.6798706l0.085144-58.6825562
		c6.2210693-6.3247986,11.7414551-13.9594116,16.2871094-21.6486816L897.0267944,370.2861633z M892.2985229,362.2982483
		l-12.0887451-10.8213501c-8.5,16.0431213-19.2908936,26.1392822-32.6894531,35.2120056l7.8845215,13.9776001
		C871.1920776,391.8374023,884.145874,378.4265442,892.2985229,362.2982483 M996.9352417,359.1784363h-85.4373169v10.5896912
		h85.4373169V359.1784363z M589.1484375,380.1997375l0.1279297-12.7834778l29.7157593-0.0729065v12.8563843
		c0.1707153,4.7709961-1.2487793,16.8594055,19.4128418,16.9508972h12.9296265v-9.7610779l-3.4307251-0.0732727
		c-8.1890869,0.5667725-7.4274292-2.9186401-7.4088135-5.3069153l-0.0186157-15.3179321
		c0-5.3682861-4.3626709-9.6941528-9.9254761-9.6941528h-9.3468018l-52.9185791-0.0185852l0.085144,25.0306702
		c0,1.973999,0.7557373,5.8736877-7.4456787,5.3069153l-3.6619873-0.1398315v9.9741821h12.5640259
		C591.2686157,398.31427,588.9837036,384.9707336,589.1484375,380.1997375 M689.6113892,449.7400818l10.1630859,12.7712097
		c15.5682373-1.4559631,29.7711792-7.1593323,41.4698486-16.1465149v-16.9267273
		c-6.8911743,6.1172791-14.9341431,10.9980164-23.6166992,14.5443726v-24.4638977h24.0491943v-10.3642883h-24.0491943v-11.7901306
		h22.0689087v-10.4498291l-40.3482666,0.0304871c2.8331299-3.0830078,5.5322876-6.6353149,8.0184326-10.053772l33.8776245-0.2071533
		v-9.9741821l-27.5164185-0.0122681c1.7058716-3.1867676,3.527832-6.4891663,4.8380127-9.9377441l-15.397522-5.3987732
		c-5.6483154,15.4767151-17.0424194,29.2531433-29.5026855,36.7780457l10.1694336,12.094696
		c1.517334-0.9869995,3.1380005-1.919342,4.5757446-3.0342712h11.4918823v11.954895h-15.147583v10.3642883h15.4703979
		l-0.0245361,29.204071C696.7160034,449.3075867,693.2365723,449.7036438,689.6113892,449.7400818 M78.4487,460.4152832v-12.9050598
		h56.2514954v-68.6694031c0-5.4716492-4.4418945-9.8830566-9.8767548-9.8830566H78.2173843v-10.7663269H56.3188057v10.7663269
		H10.0474463C4.5638766,368.9577637,0,373.3691711,0,378.8408203v68.6694031h56.3188057v12.9050598H78.4487z
		 M78.2173843,379.1517334h34.4867935v58.2623291H78.2173843V379.1517334z M22.2764187,379.1517334h34.0423889v58.2623291
		H22.2764187V379.1517334z M784.7246094,455.9916077v-15.5495911c-3.9602661,3.1443481-13.0575562,5.5084839-16.8717041,5.6970215
		v-37.5456238H822.40448l0.0852051-41.8837585c0-5.6059265-4.411438-10.0965271-9.9377441-10.0965271h-64.0932617
		l-0.0487061,90.6776733h-4.1313477v14.2394104h10.1452637
		C764.5628052,461.5302124,775.3778076,459.5502625,784.7246094,455.9916077 M767.8283691,367.0811768h0.0245361v-0.1097107
		h34.6392822v0.1097107h0.3109131v10.5290527h-34.9747314V367.0811768z M767.8283691,387.755127h34.9747314v10.5227051h-34.9747314
		V387.755127z M518.5292358,446.638855c-5.9406128,1.870636-10.7298889,2.9978333-10.7298889,2.9978333l10.7358093,13.1672668
		c0,0,10.401123-2.5775757,21.5452881-8.2441406c10.7484741-5.4411621,17.6943359-12.5153198,17.6943359-12.5153198v-19.9669495
		c0,0-8.6156616,8.4694824-18.0111694,14.8426208l-0.0610352-54.1369019l-37.9598694,0.2982788v10.2608948h16.7865295V446.638855z
		 M389.2579346,461.5302124h89.6843262v-10.7235413l-44.2601318,0.0851746v-7.3787537h37.7892151v-10.5959778h-37.7892151
		v-7.1411133h37.7892151v-10.473999h-37.7892151v-7.5066528h38.1060486l-0.018219-17.5054016h7.7811279v-10.401123h-8.1589661
		v-7.7138062c0-5.6419983-4.502533-10.1571655-10.1936035-10.1571655l-27.5163879-0.0851746v-5.9041748h-20.7713928v5.9041748
		h-27.47995v10.4130249h27.47995v7.5431213H382.878479v10.401123h31.0322571v7.1957703h-27.47995v10.3096313h27.47995v7.5066528
		h-29.8745728v10.473999h29.8745728v7.1411133h-32.5614929v10.5959778h32.5614929v7.3787537h-21.4660645
		c-8.3170166,0-16.0248718-2.5225525-22.5750427-6.7145386c4.1919861-6.0689392,6.6598816-13.4049072,6.6598816-21.3258667
		l0.072876-27.796814l-12.770813-0.0427551c11.0221863-7.1347656,16.7560425-19.8937073,16.7560425-33.9568481
		c0-0.298645-42.2679443-0.1461487-42.2679443-0.1461487l-0.1037598,10.5595398h24.4334106
		c-1.8642883,11.8507385-11.0526733,21.3013-22.6907043,23.6226807v10.2854614h21.3927917v15.2327576
		c0,4.4478455-1.2183228,8.6156311-3.2168579,12.3141174c-3.3634338-4.7710266-5.8800354-10.1757507-7.0254517-16.1163635
		l-11.5283203,0.1279297c0.9628296,9.5297546,4.5880432,18.2123718,10.1147461,25.3352356
		c-3.4184265,2.327301-7.3422852,3.9480286-11.6317139,4.4418945v14.1356812c8.7008362,0,16.7497253-2.9245911,23.2329407-7.8049316
		C369.2727356,458.3862305,378.8690796,461.5302124,389.2579346,461.5302124 M434.7185669,372.3457031h16.0553894v7.5553894
		h-16.0553894V372.3457031z M434.7185669,390.2899475h16.0553894v7.1834717h-16.0553894V390.2899475z M278.6010132,432.8561096
		h-29.0943298v-23.9763184h27.4981689v-10.2241211h-27.4981689V385.860321h28.9909668v-10.108429h-79.9414825v10.108429h28.2839813
		v12.7953491h-26.6086121v10.2241211h26.6086121v23.9763184h-28.2839813v9.9135742h80.0448456V432.8561096z
		 M305.4532166,367.0570068c0-5.3437195-4.4173584-9.8648376-9.8707886-9.8648376H181.422287
		c-5.4776154,0-9.8098145,4.5211182-9.8098145,9.8648376v93.2243958h133.840744V367.0570068z M283.5059204,450.7088623h-89.5988007
		v-83.6641235h89.5988007V450.7088623z M268.7365417,412.54776h-15.2818298l5.7643433,10.2486572
		c0,0,1.6143799,3.8873901,4.8866882,5.6483154c2.7843628,1.535553,7.0983276,1.2250061,7.0983276,1.2250061h6.9949341v-9.4687805
		h-5.0391541L268.7365417,412.54776z"/>
	<path class="st1" d="M264.000946,528.1740112v-25.859436c-0.1747131-3.8088074-4.8574829-6.3217773-10.7029114-7.4366455
		c-2.8686676-0.5362854-5.4298096-0.6808472-7.9369049-0.6808472c-4.200531,0-7.0026093,0.73526-9.4434967,1.7717896
		c-4.7485962,1.9042358-6.9963684,5.3514709-7.5749512,7.5510559l-0.3016205,3.4229736h7.0147705
		c0.132782-1.8321228,0.5605621-7.1714478,9.2687836-7.1714478c4.9597321,0,11.3238068,1.2171021,12.0348206,3.9412231v4.6161804
		c0,2.0491333-2.7480164,2.7781677-3.730484,2.9771423c-4.3568573,0.8437805-8.6600342,0.180603-17.024704,2.2720642
		c-4.6882782,1.1387939-9.1359863,3.6818848-9.5939331,10.118103c-0.5907288,7.53302,5.713028,12.0829468,15.9337463,12.0829468
		c6.0326691,0,11.0644836-3.3747559,14.6625366-5.5802002c0.2949829,2.585022,3.4711609,5.5802002,6.8698425,5.5802002
		c2.4588928,0,3.9294434-0.2589111,5.664856-0.6867065v-4.8934937c-0.5002441,0.2229004-1.1027527,0.2229004-1.7173767,0.2229004
		C265.6579895,530.421814,264.000946,529.270874,264.000946,528.1740112 M256.3774414,522.8284302
		c0,1.277832-4.8453369,7.8707275-14.825119,7.5933838c-3.9831543-0.0422974-8.2079773-1.8560791-8.087326-6.6289062
		c0.0904846-2.8565674,3.0856628-4.7250977,4.3873901-5.2131958c4.3388519-1.6691895,12.5769806-1.4764404,18.5250549-3.4649048
		V522.8284302z M326.2237854,530.2349243c-5.1587219,0-10.2269592-1.7173462-13.7827148-5.104248
		c-3.6999207-3.8029175-6.27948-10.3233643-6.0926208-16.8198547c-0.1868591-6.6473083,2.3927002-13.173584,6.0926208-16.8739014
		c3.5557556-3.5013123,8.6239929-5.1826172,13.7827148-5.1826172c8.8708191,0,14.2763367,4.5558472,17.0787964,11.3234253h8.473175
		c-3.7485046-10.9019165-12.5049133-17.6694946-26.0404358-17.5006409
		c-7.8761902,0.0904846-14.9332581,3.3747559-17.6452332,5.5441895
		c-7.4366455,5.9962463-10.1243286,15.0119629-10.2630005,22.6895447c0,7.5451965,2.826355,16.6149597,10.2630005,22.6413879
		c2.7119751,2.1694336,9.769043,5.4779663,17.6452332,5.5320435c14.5599365,0.0783691,24.5698853-9.1238403,27.2336426-21.4117432
		h-8.4308777C341.3439026,525.3112793,335.5705566,530.2349243,326.2237854,530.2349243 M473.2262573,515.9762573
		c-3.2905579-1.7596436-6.9728394-2.4647827-10.576416-2.9768066c-4.5863647-0.9883423-8.3164673-1.6934509-10.817688-2.9528503
		c-2.5850525-1.0847168-3.2000427-3.3027039-2.1635132-5.2550964c1.1450195-2.0429077,4.4414673-4.1523743,8.8045654-4.1523743
		c10.3535156,0,10.5885315,4.2244568,10.5885315,6.2073975h7.2258911
		c-0.1566772-4.3211975-1.9167175-11.9082947-17.0427246-11.9082947c-9.0396118,0-16.9765015,4.2244568-16.9765015,11.5103149
		c0,5.6950073,3.1640015,8.3587646,6.8157654,9.52771c3.8448486,1.5308838,11.2391968,2.6880493,17.0489807,3.911438
		c3.6638794,0.9883423,5.0678711,2.9105835,5.0678711,4.9174194c0,1.8803101-1.4039917,3.7124634-3.0249939,4.706665
		c-1.1630554,0.7172852-3.4895325,1.25354-5.7012634,1.7236328c-2.3261108,0-4.7967834,0-6.5505676-0.4277954
		c-5.1105347-1.2958374-7.6838074-3.7425537-7.9247437-7.5212402h-6.9422913
		c0,3.6278687,0.9703064,10.5826416,11.6188049,12.6494751c2.6155701,0.5362549,5.7972412,0.5362549,8.8045654,0.5362549
		c3.1036987-0.2648315,6.1290588-0.7893066,8.4551697-1.6871948c4.8269348-1.7717896,7.6775818-5.4599609,8.2620544-9.2805786
		C478.7825928,521.7680054,477.263855,517.9290161,473.2262573,515.9762573 M375.4654236,494.9323425
		c-8.4489136,0-20.8331604,3.453125-20.8331604,20.6705627c0,17.2895508,12.3842468,20.8692017,20.8331604,20.8692017
		c8.4911804,0,20.7970886-3.5796509,20.7970886-20.8692017C396.2625122,498.3854675,383.956604,494.9323425,375.4654236,494.9323425
		 M375.4654236,530.2290649c-9.7267456,0-13.3181458-8.2503052-13.3181458-14.6261597
		c0-6.3338928,3.5914001-14.5418701,13.3181458-14.5418701c9.7388611,0,13.1676941,8.2079773,13.1676941,14.5418701
		C388.6331177,521.9787598,385.2042847,530.2290649,375.4654236,530.2290649 M491.4438171,485.5491943h-7.3943787v10.4796448
		h-6.375824v5.6409302h6.375824v29.3365173c0,1.4462891,1.6151123,4.9659424,6.6531982,5.4779663
		c2.8745422,0.1328125,4.8935242,0,7.9670715-0.5120239v-5.4360352c-4.116333,0.5966187-7.2258911,0.4700928-7.2258911-2.0127563
		v-26.8536682h7.2258911v-5.6409302h-7.2258911V485.5491943z M214.3734894,495.9567566
		c-1.1752014-0.4399414-4.1703796-0.9703369-7.6235046-1.0244141c-3.212204-0.120636-6.7738342,0.3432007-8.9914398,1.765564
		c-1.6993561,0.7231445-3.7003174,2.3261108-5.092514,4.200531h-0.253067v-4.8695984h-7.2979889v38.7259216h7.2979889v-20.5682983
		c-0.0481873-10.419342,6.6049957-13.6378174,12.7038879-13.6378174c5.0862579,0,9.2566376,2.5192261,9.2143402,7.2560425
		v26.9500732h7.3402863v-30.1802979C220.731308,498.8853455,216.6451721,497.0171814,214.3734894,495.9567566
		 M156.7789612,496.2219543c-2.6034546-0.9464111-5.1708527-1.2837219-7.4726868-1.2837219
		c-2.2179871,0-4.3874054,0.4399109-6.2132721,1.0185242c-3.6282196,1.2171021-6.3578339,3.236084-7.8946075,4.682373v-19.6461792
		h-7.2681808v53.7558899h7.2681808v-25.1241455c0-3.4711609,1.3076172-4.5076904,2.8443909-5.7913818
		c2.6998138-1.8744202,4.9052887-2.9348755,7.2133789-3.272522c2.3445129-0.4038696,4.8997803-0.0783386,7.8044739,0.928009
		c1.4102325,0.5002441,4.2064362,1.9226074,3.9051819,6.8463135v26.4137268h7.3520508v-29.4089355
		C164.4867096,504.0863647,163.443924,498.2287903,156.7789612,496.2219543 M96.3761139,530.2349243
		c-5.0259399,0-10.1305923-1.7173462-13.7223816-5.104248c-3.6940536-3.8029175-6.3938751-10.3233643-6.0746078-16.8198547
		c-0.3192673-6.6473083,2.3805542-13.173584,6.0746078-16.8739014c3.5917892-3.5013123,8.6964417-5.1826172,13.7223816-5.1826172
		c8.9009628,0,14.3366547,4.5558472,17.0968018,11.3234253h8.5515213
		c-3.8871536-10.9019165-12.6071396-17.6694946-26.0400543-17.5006409
		c-7.949028,0.0904846-15.0601578,3.3747559-17.7298203,5.5441895
		c-7.4245148,5.9962463-10.0941772,15.0119629-10.1063156,22.6895447
		c-0.1566925,7.5451965,2.6818008,16.6149597,10.1063156,22.6413879c2.6696625,2.1694336,9.7807922,5.4779663,17.7298203,5.5320435
		c14.5297623,0.0783691,24.4793854-9.1238403,27.2696915-21.4117432h-8.4672928
		C111.5686951,525.3112793,105.8435211,530.2349243,96.3761139,530.2349243 M170.8202515,534.7669067h7.2560577v-38.7380676
		h-7.2560577V534.7669067z M170.8202515,488.5682678h7.2560577v-7.5870972h-7.2560577V488.5682678z M430.2034302,495.9567566
		c-1.1270142-0.4399414-4.2487488-0.9703369-7.5569458-1.0244141c-3.3508606-0.120636-6.918396,0.3432007-9.0697937,1.765564
		c-1.6934509,0.7231445-3.7484741,2.3261108-5.1344299,4.200531h-0.2052612v-4.8695984h-7.3399048v38.7259216h7.3399048v-20.5682983
		c-0.1202698-10.419342,6.6230469-13.6378174,12.6435547-13.6378174c5.0741272,0,9.322876,2.5192261,9.2323914,7.2560425v26.9500732
		h7.4006042v-30.1802979C436.5009155,498.8853455,432.469574,497.0171814,430.2034302,495.9567566 M508.9264526,501.9890442
		h-0.168457v-5.966095h-7.3763428v38.7258911h7.3763428v-20.1765747c0-6.689209,2.5670166-10.2990417,7.6352539-12.2757263
		c2.1094971-0.62677,4.309082-0.8919678,7.0269165-0.8919678v-6.4663391h-4.067749
		C516.079895,495.0827942,511.7167664,497.6682129,508.9264526,501.9890442 M791.9212646,506.6957092
		c5.1826782-1.9222412,8.1535645-6.38797,8.1535645-11.3837585c0-10.5763855-11.5764771-13.8606873-16.9279785-13.8606873
		h-28.0108643v53.7857361h31.4338379c4.5617676,0,16.21698-4.2307129,16.21698-15.4879761
		C802.7868042,509.8354492,793.6085205,507.5034485,791.9212646,506.6957092 M763.3498535,487.5438843h13.9813843
		c12.5891113,0,14.4451294,5.8818665,14.4451294,9.0517578c0,3.4049377-2.1271362,7.9126282-11.4742432,7.9126282h-16.9522705
		V487.5438843z M783.9663696,529.0957642h-20.6165161v-18.4709473h16.0062256
		c7.7319946,0,15.4276123,0.9221191,15.4276123,8.7747803C794.7836914,523.6600952,792.0478516,529.0957642,783.9663696,529.0957642
		 M842.904541,527.9025879v-25.7145386c-0.180603-3.9291077-4.911499-6.4181519-10.6907959-7.4727173
		c-2.9168091-0.62677-5.4055176-0.6690674-7.7739258-0.6690674c-4.3149414,0-7.1655884,0.7109985-9.6001587,1.6574097
		c-4.7971802,1.9645386-6.9121704,5.3573608-7.5632324,7.6293945l-0.3074951,3.3567505h6.9246826
		c0.1503906-1.7416382,0.7411499-7.0931091,9.4011841-7.0931091c4.8813477,0,11.3716431,1.2171326,11.9924927,3.9232178v4.5860291
		c0,2.0910645-2.814209,2.8322449-3.6760254,2.9407349c-4.4959106,0.8739624-8.7324829,0.2651978-17.1331787,2.2963257
		c-4.7607422,1.1990967-9.0396729,3.7120972-9.5759277,10.15448c-0.5907593,7.5028687,5.7850952,12.0227051,16.0543823,12.0227051
		c6.0264282,0,11.0222168-3.2905273,14.6743164-5.5626221c0.2651978,2.5313721,3.5012817,5.5626221,6.7432861,5.5626221
		c2.5435181,0,3.9415894-0.204895,5.6950073-0.6447754v-4.8453369c-0.4458008,0.204834-1.1387939,0.204834-1.663269,0.204834
		C844.5619507,530.2349243,842.904541,529.0115356,842.904541,527.9025879 M835.2872925,522.5996704
		c0,1.2715454-4.8273315,7.8401489-14.8070679,7.6352539c-3.9831543-0.0360107-8.1414185-1.8501587-8.0571899-6.6109009
		c0.0301514-2.8866577,3.055481-4.7611084,4.3450928-5.2492065c4.3087158-1.6452637,12.5288086-1.4822998,18.519165-3.4589844
		V522.5996704z M929.1065674,496.0229492h-9.4615479l-19.3566895,16.1206055v-31.1564941h-7.4609375v53.7617798h7.4609375
		v-14.4815674l7.3520508-6.1348877l15.0722656,20.6164551h9.0212402L913.06427,509.4981689L929.1065674,496.0229492z
		 M879.876709,495.9567566c-1.1387939-0.4399414-4.2123413-0.9703369-7.6353149-1.0244141
		c-3.2302246-0.120636-6.7495117,0.3432007-9.027832,1.765564c-1.7475586,0.7231445-3.6760254,2.3261108-5.1583862,4.200531
		v-4.8695984h-7.3582764v38.7259216h7.3582764v-20.5682983c-0.1746826-10.419342,6.2975464-13.6378174,12.5229492-13.6378174
		c5.0862427,0,9.298584,2.5192261,9.2080688,7.2560425v26.9500732h7.4366455v-30.1802979
		C886.1741943,498.8853455,882.1487427,497.0171814,879.876709,495.9567566 M718.0310669,495.9567566
		c-1.0968018-0.4399414-4.2244263-0.9703369-7.5870361-1.0244141c-3.2302246-0.120636-6.8459473,0.3432007-9.117981,1.765564
		c-1.7295532,0.7231445-3.5917969,2.3261108-5.0380859,4.200531h-0.1328125v-4.8695984h-7.4002075v38.7259216h7.4002075v-20.5682983
		c-0.2530518-10.419342,6.4244385-13.6378174,12.6134033-13.6378174c5.0380859,0,9.2625122,2.5192261,9.1602783,7.2560425
		v26.9500732h7.4244995v-30.1802979C724.3168335,498.8853455,720.3756104,497.0171814,718.0310669,495.9567566
		 M663.3232422,494.9323425c-8.4429932,0-20.7849731,3.453125-20.7849731,20.6705627
		c0,17.2895508,12.34198,20.8692017,20.7849731,20.8692017c8.3588257,0,20.6768188-3.5796509,20.6768188-20.8692017
		C684.000061,498.3854675,671.6820679,494.9323425,663.3232422,494.9323425 M663.3232422,530.2290649
		c-9.6480103,0-13.2578125-8.2503052-13.2578125-14.6261597c0-6.3338928,3.6098022-14.5418701,13.2578125-14.5418701
		c9.6303711,0,13.210022,8.2079773,13.210022,14.5418701C676.5332642,521.9787598,672.9536133,530.2290649,663.3232422,530.2290649
		 M577.7061157,504.640686c3.1397095-2.9709167,6.2853394-3.9110718,9.0576172-4.079895
		c2.6759644,0,4.9899292,0.6749573,6.2857666,1.241394c3.0492554,1.2837219,4.1159668,3.2063293,4.9115601,7.243927h7.303833
		c-0.6087036-4.4837646-2.1275024-8.7383728-5.7490845-10.6668701c-3.0856323-2.2959595-7.9129639-3.5675354-12.9267578-3.4410095
		c-5.0020142,0.0724792-10.2269897,1.7055969-13.8787231,5.2249451c-4.6765137,4.3991699-6.4604492,9.8168335-6.5630493,14.9454041
		c-0.1747437,5.1767578,1.277771,10.0279541,3.1459961,13.1798096c2.8443604,5.0502319,9.4070435,7.8765869,16.1687622,8.1837158
		c6.7374268,0.1508179,13.6981201-2.1271362,17.2295532-7.2678223c1.265686-1.765564,2.3441772-4.5919189,2.5733032-7.8040771
		h-7.0750732c-0.3314209,1.4944458-1.2653198,3.4049072-2.2418823,5.0803833
		c-1.048645,2.0186157-4.6220703,3.9051514-8.8284912,4.1280518c-3.9713745,0.1504517-8.5578003-1.2836914-11.3418579-5.9962769
		c-1.4403687-2.4710083-2.0068359-6.49646-1.6934204-10.395752
		C574.4758911,510.3356934,575.7294312,506.5934448,577.7061157,504.640686 M631.1361084,534.7669067h7.2921143v-38.7380676
		h-7.2921143V534.7669067z M555.0228271,517.0551147c0,4.9898682-1.0487061,10.7393188-8.9675293,13.1437988
		c-1.9343872,0.409729-3.6400146,0.5664062-5.1826782,0.409729c-1.5728149-0.0724487-3.0613403-0.409729-4.1100464-1.060791
		c-2.3201904-1.1328735-3.6278076-3.3023071-3.5557251-6.1948853v-27.3300171h-7.291748v30.8552246
		c0.8253784,4.2064209,3.838623,7.0629272,7.2196655,8.68396c1.1387329,0.4100952,4.1703491,0.9162598,7.340271,0.9162598
		c3.3265991,0,6.9724731-0.5061646,9.3044434-1.6934814c1.8082275-0.6749268,3.6340942-2.3261108,5.1105347-4.1762695h0.1328125
		v4.1401978h7.3399048v-38.7258911h-7.3399048V517.0551147z M619.8851318,485.5491943h-7.3704224v10.4796448h-6.4906006v5.6409302
		h6.4906006v29.3365173c0,1.4462891,1.4039917,4.9659424,6.6712036,5.4779663c2.8443604,0.1328125,4.8030396,0,7.9428101-0.5120239
		v-5.4360352c-4.1641235,0.5966187-7.2435913,0.4700928-7.2435913-2.0127563v-26.8536682h7.2435913v-5.6409302h-7.2435913
		V485.5491943z M631.1361084,488.5682678h7.2921143v-7.5870972h-7.2921143V488.5682678z"/>
</g>
</svg>
