<svg xmlns="http://www.w3.org/2000/svg" viewBox="0 0 1744 1744" fill="none" shape-rendering="auto" width="128" height="128"><metadata xmlns:rdf="http://www.w3.org/1999/02/22-rdf-syntax-ns#" xmlns:xsi="http://www.w3.org/2001/XMLSchema-instance" xmlns:dc="http://purl.org/dc/elements/1.1/" xmlns:dcterms="http://purl.org/dc/terms/"><rdf:RDF><rdf:Description><dc:title>Notionists</dc:title><dc:creator>Zoish</dc:creator><dc:source xsi:type="dcterms:URI">https://heyzoish.gumroad.com/l/notionists</dc:source><dcterms:license xsi:type="dcterms:URI">https://creativecommons.org/publicdomain/zero/1.0/</dcterms:license><dc:rights>Remix of „Notionists” (https://heyzoish.gumroad.com/l/notionists) by „Zoish”, licensed under „CC0 1.0” (https://creativecommons.org/publicdomain/zero/1.0/)</dc:rights></rdf:Description></rdf:RDF></metadata><mask id="viewboxMask"><rect width="1744" height="1744" rx="0" ry="0" x="0" y="0" fill="#fff" /></mask><g mask="url(#viewboxMask)"><g transform="translate(531 487)"><path d="M554 727.7c-99.2 297-363.8 388.6-503.7 19.8-19.3-50.7 31-69.5 66.2-91.9 24.1-15.3 36.8-28.5 35.3-42.2-7-64.4-36.9-243.8-36.9-243.8l-3-5.8s.7-1.6-2.2 1.2c-3 3-9.9 34.2-37 34.2-24.5 0-49.2-10.9-61-86.3C7.2 285.6 9.6 214 40 201c12.5-5.3 24-7.2 35.2-.8 11.3 6.4-13-22 112-126C268.4 6.4 396.7-3.5 448.5 8 500.3 19.5 552 44.8 574.9 98.5c27.8 65-25.9 114.3-14 262.5-2.2 53.6.8 171.2-146.6 210.6-28 7.5-19.3 48.4 22.7 58.4 67 21 117 72.3 117 97.9" fill="#fff"/><path fill-rule="evenodd" clip-rule="evenodd" d="m554 266.2.1-1.4c4.1-36.4 8.2-71.7 27.1-103.4 6.5 4.4 5.7 10 3.7 15.2-19.9 51.2-18 104.4-16.2 157.6l.4 14c2.1 66.4-14.5 126.8-58.7 177.5-15.4 17.6-35.8 29.8-56.5 40.3-21.4 11-25.9 20.1-19.2 43.6l.8 2.6c1.4 3.9 2.8 7.9-1 11.8-4.5 4.6-9.5 3.3-14.8 1.8l-.6-.1a406.4 406.4 0 0 1-137-68.3c-6-4.4-10.8-10.3-15.5-16.1l-.3-.4c-2.5-3-3-7.8.5-10.4 3.3-2.5 5.8-.5 8.7 1.8l1 .9a145.5 145.5 0 0 0 76.3 31.7c13.4 1.4 26.6.9 40 .4 7.4-.3 14.8-.6 22.3-.5 10.2 0 18.7-4.7 26.7-9.2l2.8-1.6c27.8-15.5 54.3-32.8 72.2-60.7 16.1-25 25.9-52.2 31.6-80.9 7.2-36.1 6.6-72.7 6-109.8-.3-12-.5-24.2-.5-36.4ZM50.6 190.8c21.9-1.7 34 11.2 44.3 26.3a140.4 140.4 0 0 1 22.4 61.5c.5 3.7 1 7.6-1.2 11.3-4.5.6-4.9-3-5-5.6-.5-20.7-9.7-38.7-18.9-56.1-6.6-12.5-16.2-24.6-31.4-27.6-17.2-3.5-33 12-40.8 32.2-14.5 37.6-12 74.6 1.4 111 5.8 15.9 13.1 32.1 27.8 43.2 14.8 11.3 32.7 9.3 43.6-5.7l2-2.5c2-2.6 4-5.1 5-8 2.1-5.8 5.4-11.2 11.3-10.4 6.8 1 8 8.3 8.7 14a3661 3661 0 0 0 22 156.7l5.9 38.8c2.6 17.1 5.6 41.7 3.6 52.1a28 28 0 0 0-.3 2.2c-.4 2.8-.6 5-4.2 5.5-4.9.8-7-2-7.7-6.4-2.3-17-3-23.6-4-49.6-.9-25.2-5.6-50-10.4-74.9l-5-27c-5.2-30.8-10.3-62-10.8-97l-2 3c-7.6 11.3-13.7 20.5-24.5 24a40.5 40.5 0 0 1-46.1-12.5 127.8 127.8 0 0 1-28.8-55.8c-8.4-34-9.9-67.1.9-100.6 5.2-16.1 23.7-44.7 42.2-42Zm34.6 127.5c4.4 3.2 8.4 6 12-5.4-1.1-42.2-14.7-69.2-35.8-70.3 11.2 14.6 22 28.8 23 48.5a32.3 32.3 0 0 1-10.7-8.8c-2-2.2-4-4.4-6.5-6l-3-2.4c-4.8-3.6-9.7-7.4-17.8-4.5 3.8 5.8 9 10 14.3 14 6 4.7 12 9.3 15.6 16.5-10.6 7.7-15.2 17.7-9.7 29.9 4.8 10.5 11.9 19.2 25.9 19.8-.6-6.3-4.7-10.9-8.8-15.4-5-5.4-9.7-10.6-7.5-18.6 3.2-1.5 6.2.7 9 2.7Z" fill="#000"/></g><g transform="translate(178 1057)"><path d="M1314.4 694.4 10.7 691.1S44 481.4 106.9 362.2c73-138.7 176.8-250.5 390.4-316.9C516 39.5 669.8 114 669.8 114l108.7-70s175 48.2 241.2 85.5c84.2 47.3 179.3 187 223.1 296 46.6 115.8 71.6 269 71.6 269Z" fill="#fff"/><path fill-rule="evenodd" clip-rule="evenodd" d="M1290.7 617.2a2582 2582 0 0 0 17.3 77.2c4.7 0 8.2 0 11.4-.9a482.5 482.5 0 0 1-11.7-60.7c-2-13-4-26.1-6.6-39-6.2-30.4-13.2-60.5-22-90-10-33.6-21.5-66.9-35.3-99.3a743.8 743.8 0 0 0-48.2-97.7 685.2 685.2 0 0 0-64.4-91.1v-.2c-20.5-23.6-40.8-47-66.5-65.8-12.5-9.1-25.9-16.7-39.2-24.2-9-5.1-18.1-10.2-26.9-15.8-27.4-17.6-57.8-27-88.2-36.2-14.4-4.4-28.8-8.9-43-14.2a192.7 192.7 0 0 0-31.6-8c-18.4-3.5-37-7-53.2-19.4-2 8.4-7.7 9.7-13.5 11-3.1.7-6.2 1.4-8.8 3.2a1810.6 1810.6 0 0 1-54.4 36 3387.4 3387.4 0 0 0-30.4 20c-2.2 1.4-4.1 2.8-6.7 1.3-10.3-6-21.5-10.1-32.7-14.2-5.9-2.1-11.7-4.2-17.5-6.7l-17-6.9c-13.5-5.4-27.1-11-40-17.5-7-3.5-14.2-6-21.5-8.3-12.4-4-24.8-8.1-34.9-17.5-3.5-3.4-9.7-3.3-13.5 2-5.7 8.3-14.6 11.2-23.6 14.2l-15.8 5A426.6 426.6 0 0 0 410.4 68a1350.1 1350.1 0 0 0-82.1 39 403.3 403.3 0 0 0-88.4 61 601.8 601.8 0 0 0-102.2 122.5A768.3 768.3 0 0 0 84.5 390a897.7 897.7 0 0 0-32 82.8 714 714 0 0 0-20 65.8C30.7 545.8 29 553 27 560c-3 11.9-6 23.7-8.4 35.6-6.3 32.9-11.6 66-16.2 99 6.3 0 11.6 0 17.1-1.1 1-18.1 4.4-35.3 7.7-52.2l2.5-13a785.6 785.6 0 0 1 25.4-106.1l4-12C71.9 472 84.5 434 101.5 397.4c22.8-49.3 49-96.5 81.7-140.2a540.3 540.3 0 0 1 79.7-86.4c27.7-23.9 59-41.7 91.8-58.2 11.5-5.8 23.3-11 35-16.3A604.5 604.5 0 0 0 435 74.7c9.6-5.3 15.4-5 19.7 7.3a218.6 218.6 0 0 0 40.4 68.5 249 249 0 0 0 140.7 85.6c56 12 105.3-.3 146-40.4 22.1-21.6 43.2-44.9 54.9-74.4 4.5-11.5 8.6-23.3 12.7-35.3l6-17 34 10.8c10.7 3.5 21.5 7 32.4 10.3 45.7 14 86.6 38.4 125.6 65.4 43.3 30 75.4 71.4 105.2 114.2a769.7 769.7 0 0 1 56.5 97.6 766.7 766.7 0 0 1 42.5 102.7c11.7 35.3 22.3 71 30.5 107.6l8.6 39.6ZM615 98.2c8.3 3.9 16.7 7.8 26 9l4.5 2.2a52 52 0 0 0 17 6.2c-3 4.3-6 8.3-9 12.2-6.4 8.1-12.4 16-16 25.4l-2.3 5.9c-2.2 5.5-4.4 11-5.2 17-1.1 9.1-5.9 11.4-15.2 9.6a127 127 0 0 1-42.5-19.3c-10.1-6.3-20-12.9-30-19.4-13.3-8.8-26.7-17.6-40.5-25.8-17.4-10.5-25.2-27.1-32.4-44.3-3.1-7.6 3.4-12.6 9-16.4 10-7 21.4-7.2 32.9-4.2 19.4 5 37.5 13.2 55.7 21.4 11.6 5.2 23.1 10.4 35 14.8 4.4 1.6 8.7 3.6 13 5.6Zm130.6 92.4c-3.2 5-6.6 10-13.7 8-5.9-1.4-7.3-6.5-8.7-11.5l-.7-2.4a130 130 0 0 0-43.4-64c-22.6 17.1-30.8 41.4-37 66.8 0 .7-.3 1.4-.4 2.1-1.4 6.4-2.8 12.7-12 12-22.1-2-43.4-6.8-62-20.6-13.8-10.3-27.9-20.2-42-30a4158 4158 0 0 1-18.5-13c2 8 6.4 15.1 12.5 20.7a281.2 281.2 0 0 0 73.4 49.3 180 180 0 0 0 110.5 13.2c37.7-6.6 67.1-28.5 90.5-58.3l3.8-4.7c6.6-7.9 13.5-16.2 15-29.5-4.2 4.2-8.1 8.5-12 12.7-10.2 11.2-19.6 21.5-32.3 28.2a60.7 60.7 0 0 0-22 19.5l-1 1.5Zm83.8-93.5a18 18 0 0 1-7.1 8.8c-27 25.5-56 49-86.5 70.3a145.5 145.5 0 0 0-46.4-65L711 97c21.5-14 42.7-27.8 63.7-41.8 4-2.7 6.2-1 8.8.9l1.1.8a45 45 0 0 0 27.3 9.3c20.8-1 26.7 10.8 17.4 31Z" fill="#000"/><path d="M217.5 694.4c1.2-22.7 3.4-45.5 5.8-68.3 2.7-26.1 5.4-52.2 9.6-78.3 4-24.3 8.7-48.4 14.2-72.3 9-39.3 22.1-77.4 44.7-111.5 3-4.6 6-9 12-4.9 5.3 3.6 2.4 7.4.6 12.1-9.5 24-18.4 48-27.3 72.2A637.5 637.5 0 0 0 249.8 553c-5.9 33.8-8.2 68.2-12 102.3-1.3 12.3-2 24.6-3.2 38-5.5 1.1-10.7 1.1-17 1.1ZM1123.7 694.4c-9.2-36.8-12.3-74.6-22.4-111-7.7-28.1-14-56.8-24-84-7.1-19.3-14-39-23.4-57.6-12.7-25-23.3-51.2-34.6-77-1.3-2.9-3-6.3 1.2-8.9 4.5-2.6 7.5-.4 10 2.7 3.8 5 7.8 10.2 10.6 15.9 10 20.4 19.6 41 29.5 61.6a603.2 603.2 0 0 1 34.2 95.5 618.8 618.8 0 0 1 21.7 96.5c2.7 21.4 7.2 42.7 8.8 65.3-3.4 1-7 1-11.6 1ZM612.5 167c-8.2 2-11.1-2.7-12.5-8.4-1.5-6.2.8-11.7 6-15.5 3.3-2.4 7-2.4 10.9-.6 4.8 2.3 4.6 6.6 4.7 10.8.3 6.3-3.1 10.3-9 13.7ZM758.4 135.5c1.7 5.9 3 11.4-1.7 14.9-4.2 3-9.7 6.7-14.8 2-5.5-4.8-3.8-11.3-.2-16 4.2-5.4 10-8 16.7-1Z" fill="#000"/></g><g transform="translate(266 207)"><path d="M907.4 335c2 23.5-6.8 42.5-19 61.6 8.8 5.7 4 12 .8 19.1-10.2 23-28.7 37.5-48.9 50.4-2.3-.7-3.9-2.5-3.5-4.7 2-10 4-19-10.4-22-4.1-.9-4.7-7 1-9.7 3.6-1.6 7.5-2.7 13.5-4.8-40.4 2.5-91.6-21.2-102-46.8-13.2 5-26.6.5-39.8-1-8.6-1-16 .6-23.5 3.2a472.3 472.3 0 0 1-136 25.4c-12.1.4-23.6-2.5-35.2-5-26.4-6-53.9-7.2-79-18.4-7.8-3.5-10.8 1-9.5 8a115 115 0 0 1-2.4 57.7c-3 9.6-6.8 19.1-12.6 26.2-16.1 19.8-17.3 41.4-12.8 64.8 1 6.3 1.6 12.7 1.6 19 .2 5 .7 10.6-7 11.4-7.2.7-10.2-3.8-11.2-9.6-1.6-8.7-2.7-17.4-5.4-26-8-26-17.9-34.4-45-36.4-9.3-.8-18.4-3-27-6.7-19.4-7.6-17.9-25-6.6-33.9 12.7-10.1 18.6-23 25.4-36.7 6.1-12.4 19.6-18.6 32.7-23 5.8-2 9.4-4.9 12-10.2a48.8 48.8 0 0 1 32-27c7-2 9.8-6.7 11.6-13.7 6.3-25 19.8-46.6 44.8-54.5 27.9-8.8 36.1-31.4 46.4-53.6 7.6-16.4 17.6-30.9 31.5-42.4 19.4-16 40.1-16.7 57.4-2 26 22.2 42.7 17.3 67.5-5.2 17.6-16 35-31.7 60-35.6 47-7.3 86.6 13 105.6 56.7 1.7 3.8 2 8.3 5.8 11 20.9-12.5 37-6.9 42.7 17 2.6 10.6 11.7 11.5 17.4 16.9 17.4 16.3 22.9 37.2 26.6 59 1.1 6.7.4 13.6.5 21.5Z" fill="#000"/></g><g transform="translate(791 871)"><path d="M182.3 95.7c-29.2 14-65.1 3-84.2-16-2.3-2.3-3.8-5.6-5.3-8.6-1-2.3-1.6-5 .7-7.1 2.2-2.1 4.7-1.8 7.1-.7 2.6 1.3 5.6 2.5 7.5 4.5 12.1 13 28 16.4 44.7 19C162 88 169 82.3 177 80.2c5.3-1.4 11-9 15-.7 3.3 6.8-1.3 12.9-9.7 16ZM66.6 57.4C71 45.2 80.3 40.6 90.8 37.9c5-1.3 10.8-1.7 13 4.3 2.4 7-3.2 10.9-8.3 12-7.3 1.4-12 4.6-15.4 11.2-2.2 4.3-5.7 9.7-11.7 7-7.2-3-3.8-9-1.8-15Z" fill="#000"/></g><g transform="translate(653 805)"></g><g transform="translate(901 668)"><path d="M65.7 103.7c-.6 21.6 16.4 30.6 27.5 43.5 8.5 10 18.5 18.7 13.7 34.4a39.6 39.6 0 0 1-40.8 27.6 104 104 0 0 1-36.4-11A22.2 22.2 0 0 1 19 187.6c-1.7-3.8-5.4-7.8-.5-11.4 4.6-3.4 7 0 10 3.7 11 13.3 26 16.4 42.6 15.7A23.2 23.2 0 0 0 93 180.8c3.6-8.3-1.6-15.2-6.3-20.8-9.3-11-20-20.5-27.4-33.2-8.3-14.2-7.6-44.1 2.2-57.4 1.9-2.5 3.6-5 7.2-3.1 3.8 2 3.4 5.5 2.2 9a69.3 69.3 0 0 0-5.2 28.4Z" fill="#000"/></g><g transform="translate(610 680)"><path d="M407.4 122.5c13 .3 25.4 1.1 37.6 2.5 3 .4 5 3.3 5 6.7 0 3.3-1.7 5.6-4.7 7-11.2 4.8-22 8.2-33.7.2-6.5-4.5-9-8.7-4.2-16.4ZM247.6 117c7 0 7.8 3.8 7 8.5-2 10.2-20 22.4-30.4 20.5-5.9-1-10.5-4-10.7-10.5-.2-6.7 4.8-8.2 10.3-8.4 9-.3 15.8-5.2 23.8-10ZM215.1 76.6c5-12 9-29.4 24.1-22.5 20.7 9.4 13.9 30.7 9.7 47.4-1.6 6.3-14.5 15.9-18.3 14.3-16.3-6.8-19.2-21.7-15.5-39.2ZM442 113.4c-8.6 7.5-17 7.6-22.2-1.5-9-16-8.6-32.8 3.3-47.2 2.5-3 13.8-3.6 16.3-1 14 15 14.6 31.8 2.6 49.7Z" fill="#000"/></g><g transform="translate(610 680)"></g><g transform="translate(774 657)"><path d="M81.4 35C60 29.6 52 33.2 40 52.6c-2.4 4-3.4 11.4-10.6 7-5.6-3.4-5.3-8.8-2.6-14.6a51.4 51.4 0 0 1 38-30.7 33.1 33.1 0 0 1 37.5 26.4c.9 5.3.1 10-4.8 13.6-11.2-1.3-8-14.2-16-19.1ZM246.2 32.8c14-6.2 27-12.4 41.2-1.9 5.1 3.7 9 8.8 11.3 14.7 2 5 2.3 10.7-2.7 13.8-5.7 3.5-8.1-2.1-11-5.6-10.4-12.8-18.4-13.7-32.4-4.6-4 2.6-6.8 8-13.5 7-5.7-9.6-.1-16.3 7-23.4Z" fill="#000"/></g><g transform="translate(0 559)"><path d="m14 1186.3 235.4 16.5s68.6-71.2 47.4-271.7c-3-29 27.8-209 29.3-222.7 4-36 21.3-104.9 40.1-131.2 85.3-119.3 74-138.5 79.3-166.4 5.7-29.4 15.4-80.4 21.3-100 2.7-9 22.5-72.8 4.8-75.8-84.4-14.2-65.4 148.2-97.5 133.2-49-23-59-87.3-59-87.3s-64.7-175.3-99-177.3c-14-.9 2.1 88.8 2.1 88.8s-72.3-95.6-89-95.7c-16.7 0 8 71.1 8 71.1s-34.8-30.2-48.7-20.8c-18.4 12.5 67 155.3 53.2 155.3-10.5 0-28.8-35.7-41.5-42.3-21.5-11.2-29.2-13.5-31.3 6.5-2.1 21.2 42.5 88.2 63 125.7 10.6 19.4 73.2 132 86.6 162.7 16.8 38.8-24.5 99.8-41.6 129.3-17 29.6-86.2 202.4-108.8 233.3-22.7 30.9-45.8 81.3-55.9 135.6-11.1 60.1 1.8 133.2 1.8 133.2Z" fill="#fff"/><path fill-rule="evenodd" clip-rule="evenodd" d="M339.5 676.2c-1.3 7.3-2.7 14.6-4.3 21.8l4.8-28.2a6441 6441 0 0 0-12.6 71c-1.7 10-3.2 20.1-4.7 30.2-5.7 40-9 80.4-12.3 120.7a72 72 0 0 1-3 13.7c-1.8 6.3-3.5 12.6-2.7 18.6 1.4 10.8 1.8 21.6 2.2 32.5.6 15.8 1.2 31.7 5 47.3a70 70 0 0 1 1.2 21.5c-2.6 41.7-9 82.4-24.5 121.6-8.2 20.8-18 40-34.2 56.2l-11.7-.6c3.8-10.5 9.6-19.8 15.5-29 4-6.5 8-12.9 11.4-19.7 9.3-19 15.8-39.1 19.2-60l.1-.8c3.3-19.3 6.7-38.7 7-58.5.2-12.4-.3-24.4-8-36l-9.8 27.5c-21.8 61.5-43.4 122.5-89.7 172.5a60 60 0 0 1-17-1c33-33.6 55.6-73.2 71.3-115.8l5.6-14.8c13.2-35.3 26.5-70.8 33.2-108.3 1.7-9.7 4-19.2 6.3-28.8 3.3-14 6.6-28 8.2-42.3l3.8-32.4c6.6-58 13.2-116 24.1-173.5a422.7 422.7 0 0 1 45.9-127.2c9.4-17 20-33.1 30.7-49.3 7.8-11.8 15.5-23.5 22.7-35.5l5-7.4c5.4-7.6 10.8-15.2 10.4-25.5-1.6-41.2 9-80.4 19.4-119.6l4.8-17.8c4.1-16 8-32.2 7.7-49-.1-10.2-5.5-14-13.7-9.2a114.9 114.9 0 0 0-45.8 57.3 209.2 209.2 0 0 0-12.5 61c-1.3 15.7-12.8 21.7-27.4 16.3-17.6-6.4-27.6-20.8-37.5-35l-.8-1c-9.3-13.4-14.5-28.6-19.7-43.8-2-6-4-12-6.4-17.8-17-43.3-35.4-86-56.6-127.5l-1.5-2.8c-7-14-14.6-28.8-31.8-36.2l2 18c4.6 42.6 9 84.4 22.8 124.8l-6.5 2.7c-24.8-57.6-53.8-112.2-101.5-155a26 26 0 0 0-2.6 18.5c3.7 23 13.8 43.4 23.9 63.8 3.6 7.2 7.2 14.5 10.5 21.8 4.5 10 9.8 19.8 15 29.5 3.5 6.4 6.9 12.7 10.1 19l.3.6c2.4 4.8 5 10.1.7 15.3-4.3-.7-5.6-3.3-6.8-5.7l-.3-.5a467 467 0 0 0-35-59.4c-11.7-17.5-23.4-35.1-39.8-49l-1.9-1.6c-4.4-4-9-8-14.4-3.7-6.3 5-4.8 13.3-1.6 20 4.6 9.6 9.4 19 14.1 28.5 6.2 12.5 12.5 25 18.4 37.7l7 15c10 21.4 20 42.8 29.5 64.4 1.9 4.4 3.2 9-3.7 13.3-11.6-9-20.8-20.5-30-32-12.6-15.7-25.3-31.4-44-41-6.6 8.2-8.6 15.5-2.3 26 9.6 16 18.6 32.5 27.6 48.8 6 11 12 22 18.2 33 5.6 9.8 10.5 20 15.3 30.3 6.6 13.9 13.1 27.8 21.6 40.6A683 683 0 0 1 216.9 536c13.8 31.2 9 61-2.7 90a915.5 915.5 0 0 1-50.6 100.5 597.7 597.7 0 0 0-35 79.5l-4.3 11.4-1.6 4.2c-9.7 25-19.4 50-27.2 75.7l-5.7 18.4c-6.9 21.8-13.7 43.6-17.9 66a426 426 0 0 0-5.8 100.3l.6 13.1c1.6 34.1 3.1 68 21.5 98.3l-34.6-2c-41.8-86.5-20.3-170.4 11.8-253.8a104 104 0 0 0-24.8 43.8c-7 21.9-13.3 43.9-17.8 66.4a342 342 0 0 0-2 137c.4 1 .9 2.2.8 3.8-4 .6-8 .4-11.8-.7l-.6-1.3c-3.1-7.4-6-14-6.6-21.4-2.2-25.4-3.5-51-2-76.3 2.4-38.4 13.7-75 25.2-111.5.8-2.2 1.4-4.5 2-6.8 1.4-5.5 2.8-11 5.8-16 12.7-21.3 25-42.8 37.3-64.4 7.6-13.3 15.2-26.6 23-39.8 13.7-23.7 24-49.1 34.2-74.6a703 703 0 0 1 27.3-62c6.4-12.4 12.3-25.1 18.1-37.8a656.8 656.8 0 0 1 24.7-49.9c14.1-24.8 18.5-49.6 10.6-76.5-7-23.7-19.5-44.7-32-65.7-4.1-7-8.3-14-12.3-21.1-4.5-8-9.3-16-14-23.8-8-13.1-16-26.2-22.6-40.1-10.4-22-22.2-43.2-34-64.4l-18.3-33-.7-1.5c-6.4-11.8-12.9-24-10.5-38.2 3-18 13.5-22.4 29.4-13.7 6.6 3.6 12.3 8.5 18 13.4 4.3 3.7 8.5 7.3 13.2 10.5-4.1-4.9-6-10.7-8-16.4a71.9 71.9 0 0 0-4-10.5c-12-23.7-23.3-48-33.7-72.5a26.6 26.6 0 0 1 6.5-30.7c7.6-6.7 17.3-5 25.7 1.3 2.3 1.7 5 2.9 7.8 4l3.6 1.7a56.7 56.7 0 0 1-6.6-36.5l.2-1.9c.6-6.8 1.1-13.6 8.4-16.6 8-3.2 15.6-1.8 22.5 4.2 16.2 13.8 29 30.3 42 46.9l1.6 2c3 3.6 5.5 7.5 8 11.4 4.6 6.7 9.1 13.4 15.2 19.3a310.8 310.8 0 0 1-9-60.3l-.4-3.3c-.7-5.8-1.4-11.2 5-14.8 7-4 13.3-.6 19 3.4 16.5 11.5 26.7 28 35.6 45.5a940 940 0 0 1 36.2 82.4c3 7.7 6.3 15.4 9.6 23a488.4 488.4 0 0 1 19.6 51.4 108 108 0 0 0 37.9 55c9.5 7.3 17.6 4.2 19.4-6.6l1.5-9.1c3.9-23.5 7.7-46.7 19.7-68.7 10-18.2 21.1-33.3 38.4-43.9 15.4-9.3 31-5.5 34.6 8.3a56 56 0 0 1 2 20.2c-2.5 22-8.5 43-14.5 64.2-3.1 11-6.3 22.1-9 33.3l-3.3 12.9a110.6 110.6 0 0 0-5.9 42c1.5 11.8.8 23.9-2 35.5-5.3 20.5-16.7 37.7-28 55-6.8 10.2-13.7 20.6-19.2 31.6-7.3 14.8-16.2 29-25 43.1-3.9 6.3-7.8 12.5-11.5 18.8-15.1 25.1-20.2 52.4-25.4 79.7ZM47.3 1056c0 .9-.1 1.7-.3 2.4-4 30.7 1.2 58.5 7 86.4-4-20.7-3.8-41.5-3.6-62.4 0-10.8.1-21.6-.3-32.4-2.6 1.5-2.7 3.8-2.8 6Z" fill="#000"/><path d="M273.6 406.4c1.5 24.2 6 46.1 19 66.5 6.3-5.2 5.6-9.6 4.2-13.5-13.4-37.4-9.8-76.3-10.2-114.9 0-2 0-4.2.2-6.4.2-4 0-7.9-5.5-8.1-5.4-.2-6.3 4.2-6.5 7.8-1 14.4-2.2 29-1.4 43.3.4 8 .5 16.1.2 25.3ZM246 540.3c-4.7-3-9-4.8-11.7.1-2 3.4 1.3 5.8 3.5 8.5a92 92 0 0 0 26.7 24.6c8.1 4.7 16 4.5 24.3 1.2 3-1.2 4.7-3.5 4.5-6.9-.4-4-3.4-4.3-6.5-4.4-17.3-.6-29.4-10.2-40.9-23.1ZM228 397c-5.5-2.2-10.3-3.5-14.8.3 5.8 10.8 28.6 23.9 39.5 22.5-2.5-13.5-15.4-15.6-24.6-22.8Z" fill="#000"/><path d="m1722 1194-240.1 4.4s-20.1-26.7-36.5-144.5c-4-28.4 12.9-82.2 10-162.5-4.2-124-27.7-283.6-31.8-294.3a1230.2 1230.2 0 0 0-75-150.5c-28.6-45.6-38.6-124.5-25.4-189.5 1.3-6.6 6-25.5 21.5-29.9 16-4.5 31.5 11.7 39.4 9 8-2.6 23.3-18.4 34.6-22.9s23.1-6 19.2-35.7c-1.8-13.7-34-163.7 1.5-168.4 31.5-4.2 40.8 78.1 48.5 108.6 10.8 43.5 13.5 95.5 18 103s35 26.3 48.1 50.8c13.2 24.4 13.2 54.2 9 81.9-6.7 43.7-41.9 134.8-19.4 205.1 13.8 43.4 120.8 304.8 142 357.7 20.5 51.7 51.8 143.4 51.8 173.3 0 58.4-15.4 104.5-15.4 104.5Z" fill="#fff"/><path fill-rule="evenodd" clip-rule="evenodd" d="M1649.7 1194c20.2-29.3 23.7-63.4 27.2-97.6l1.5-13.5c3.6-31.7 3.7-63.7.4-95.4a493 493 0 0 0-13.6-67.5l-5.4-22c-4-17.3-9.3-34.2-14.5-51-3.2-10.2-6.4-20.4-9.3-30.6a693 693 0 0 0-33.2-90.6c-4.4-10-9.1-20-13.9-30a509.4 509.4 0 0 1-30.6-74.8c-3-10.2-6.5-20.4-10-30.5-9-26.4-18-52.8-18.5-81-.4-30.1 6.5-59.4 13.4-88.6l.8-3.2c8-33.8 16-67.6 14.3-102.9-1.5-33.9-21-56.1-46.3-74.5-16.7-12.2-36.6-18-56.5-22a70 70 0 0 0-55.4 13.6c-9.1 6.5-9.4 18.2-1.7 30 17.7-23.3 41.1-19.2 63.9-15.2l7.7 1.3c5.3.8 10.6 2.4 16 4a126 126 0 0 0 17.2 4.2c7.8 1.2 11.8 5.4 15.8 13.6-14.5 3.5-27.4.1-40-3.1l-5.2-1.4-4.3-1c-13-3.4-25.6-6.6-39.5-4-17.3 3.3-27.5 12.2-28.7 29.9-.8 13.6-.4 27.3 0 40.9.2 6 2 12.9 9.7 12.5 6-.2 6-4.8 6.2-9.2v-2.7c2.4-28.6 34.4-55 62.6-50.6 3.2.5 6.5.8 9.8 1.2 11 1.2 22.1 2.3 31.8 9.1l2 1.3c2.7 1.6 5.4 3.2 3.8 7-2 4.9-6 3.7-10.3 2.4l-.6-.1-2.4-.7c-16.2-4.8-32.4-9.6-49.8-3.8a45.4 45.4 0 0 0-31 38.5 37.6 37.6 0 0 0 14.9 34.9c13.3 10.3 20.7 7.7 26.2-8 .8-2.3.6-5 .5-7.7-.3-5.1-.5-10.2 6-12.8 4.8-1.9 8.5.5 12.2 3a21 21 0 0 0 7.7 3.5 27.7 27.7 0 0 1 16.9 11.2c-5.7 6.7-11.2 4.7-16.7 2.8a27 27 0 0 0-7.3-1.8c-3 1.8-4 4.9-5 8-.3 1.2-.7 2.5-1.3 3.7-13 28.2-32 23.8-50.7 8.1h-.1c-2-1.7-4-3.4-5-5.6-5.4-13.2-13.5-20.1-29.4-18.6-7 .6-12-8.2-13-16.7a308.4 308.4 0 0 1-3-45.4c-5-.7-10-.7-15-.8-9.6 0-19.2 0-27.9-5-2.1-1.2-4-3.1-4.4-7.6 7.4-4.9 15.9-4.5 24.5-4 8.7.4 17.6.8 25.7-4-1-2-2.2-3.9-3.4-5.7-4.2-6.8-8.4-13.5-6.7-22.2.7-3.5-2.8-4.6-5.9-5.4a88 88 0 0 1-12-4.5c-14.7-6.3-26-.9-28.6 15-7.2 44-9 88.1-.2 132 3.5 17.5 10.3 34 20 49a465 465 0 0 1 29.6 55.4l9.7 20c7.2 14.5 13.2 29.5 19.2 44.4l10 24.6c16.2 37.5 21.7 77.4 26.7 117.5a1415 1415 0 0 1 10.2 131.4l1 26.3c1.2 23.8 4.7 47.2 8.1 70.6a1859 1859 0 0 1 4 28c5 37.4 16 73.3 26.9 109.1l4.5 14.8a320.6 320.6 0 0 0 64.2 119.8c-5.5.8-11.2.8-16.8 0-49.5-61.6-68-134.2-86.4-205.5l-3-11.9-.3 1-.2.5c-1.8 4.8-4 10.8-5.1 17.7-5 29-2.2 57.7.7 86.4a217 217 0 0 0 15.8 62.3c3 7.2 6.7 14 10.4 20.7 5.2 9.5 10.4 19 13.6 29.6H1483a161.4 161.4 0 0 1-30.8-58.1c-12-35.5-15.7-72-17-108.8-.4-11.2 2.5-22 5.4-32.6a129.9 129.9 0 0 0 6-39.9c1.4-22.8 2.7-45.4-.2-68.5a499 499 0 0 1-2.8-58.8c-.2-10.2-.2-20.4-.7-30.6v-1.1c-1-23.9-2-51.4-5-76l-2.2-21.5c-3.1-32.4-5.6-58-25.5-114.1-6.3-17.7-15-34.4-23.5-51-7.3-14.1-14.6-28.2-20.5-43a252.5 252.5 0 0 0-28.5-51c-15.9-22.6-19.8-48.4-23.7-74.3-.6-4.2-1.2-8.5-2-12.7-4.2-26.2-.8-51.9 2.6-77.5 1.2-9.7 2.5-19.4 3.4-29.1 2-21.4 22.8-30.8 49.1-24 4.2 1.1 8.2 2.6 12.4 4l6 2.2a56 56 0 0 1 29.5-21.3c14.3-3.8 14-12.7 13.7-24v-1c-.7-21.5-3.3-42.8-6-64.1-3.4-28.5-7-57-5.7-85.9 1-20.4 13.6-33.3 31.6-31 13.1 1.5 18.4 12.1 23.1 21.7 9.5 19.2 12.9 40.1 16.3 61 1.4 8.5 2.7 16.9 4.5 25.2 2.6 12.3 4.4 24.7 6.2 37.2 2.6 18.2 5.2 36.4 10.5 54.1l.2 1c.8 2.6 1.6 5.2 1.5 7.7-.5 9.7 4.4 15.3 12 20.7 26.4 18.5 44.4 44 50.4 75.3 4 20.7-.5 41.7-4.9 62.5l-1.9 9c-2.8 14-6 28-9.3 41.8a660.6 660.6 0 0 0-16.2 85.5c-1.9 18.9 3.1 36.6 9 53.5l1.4 4.2c8.2 23.4 16.3 46.8 26 69.7 21.1 49 40.8 98.5 59.7 148.3 3.2 8.4 6 17.1 8.6 25.8 5 16 10.1 32.2 18.3 46.8 11.8 21 22.3 42.7 32.8 64.4 7 14.4 14 28.9 21.3 43.1 2.7 5.2 3.8 10.8 5 16.3l1.4 7c9.4 37 18.5 74.2 18.6 112.7 0 25.4-2.8 50.8-6.5 76-1 7.4-4.2 13.8-7.8 21l-.7 1.3c-3.9.9-7.9.8-11.8 0l1.6-6.5c4.3-16.8 8.4-33.1 9-50.1 1.2-38.3.4-76.6-8.1-114.1l-1.6-6.9c-6.5-29.1-13.1-58.4-31.2-84 2 16.9 6.8 32.8 11.6 48.6 3.3 10.8 6.5 21.5 8.9 32.5 9.4 43.9 9.5 87.3-1.6 131-3.3 13.3-9 25.4-14.7 37.5l-6 12.8h-34.6ZM1440.9 142.3c2.7 19.6 5.5 39.4 3.5 60a85.2 85.2 0 0 1 36 6.3c5.7 1.9 11.4 3.8 17.2 5 2.5-4.3.7-7.5-1.2-10.7-1-2-2.2-4-2.3-6.2-2.5-37.3-10.6-73.6-18.7-109.9l-5.3-24c-3.3-14.6-9-28.5-17-41.1-2.3-3.8-5-6.8-10-6.6-5.4.3-6.9 4.7-8.2 8.6a76.3 76.3 0 0 0-2.1 35.4l1.3 8.8c1.7 10.6 3.4 21.6 2.8 34.2.3 13.5 2.1 26.8 4 40.2ZM1685.5 1148l4.5-22c4.1-29 4.9-56.2 5.7-83.6v-1.5c7.7 37 1 72.2-10.2 107Z" fill="#000"/><path d="M1523.3 552.2c-6.5 13.3-23.7 19-35.7 13.1-3.3-1.6-6-3.4-5.7-7.4.5-4.9 4.3-4.8 7.6-4.3 11.2 1.5 21.7-8.5 33.8-1.4Z" fill="#000"/></g></g></svg>